ply
format ascii 1.0
comment Object C enhanced thermos mesh generated from prompt: a glossy black and dark purple thermos bottle, black lid, lime green lock button, silver bottom rim, white Pisces constellation star decoration, centered product render, isolated on white background, high detail
element vertex 1712
property float x
property float y
property float z
property uchar red
property uchar green
property uchar blue
element face 2036
property list uchar int vertex_indices
end_header
0.310000 0.000000 -0.780000 21 11 24
0.309336 0.020275 -0.780000 21 11 24
0.307348 0.040463 -0.780000 21 11 24
0.304043 0.060478 -0.780000 21 11 24
0.299437 0.080234 -0.780000 21 11 24
0.293548 0.099646 -0.780000 21 11 24
0.286403 0.118632 -0.780000 21 11 24
0.278031 0.137109 -0.780000 21 11 24
0.268468 0.155000 -0.780000 21 11 24
0.257756 0.172227 -0.780000 21 11 24
0.245940 0.188716 -0.780000 21 11 24
0.233070 0.204397 -0.780000 21 11 24
0.219203 0.219203 -0.780000 21 11 24
0.204397 0.233070 -0.780000 21 11 24
0.188716 0.245940 -0.780000 21 11 24
0.172227 0.257756 -0.780000 21 11 24
0.155000 0.268468 -0.780000 21 11 24
0.137109 0.278031 -0.780000 21 11 24
0.118632 0.286403 -0.780000 21 11 24
0.099646 0.293548 -0.780000 21 11 24
0.080234 0.299437 -0.780000 21 11 24
0.060478 0.304043 -0.780000 21 11 24
0.040463 0.307348 -0.780000 21 11 24
0.020275 0.309336 -0.780000 21 11 24
0.000000 0.310000 -0.780000 21 11 24
-0.020275 0.309336 -0.780000 21 11 24
-0.040463 0.307348 -0.780000 21 11 24
-0.060478 0.304043 -0.780000 21 11 24
-0.080234 0.299437 -0.780000 21 11 24
-0.099646 0.293548 -0.780000 21 11 24
-0.118632 0.286403 -0.780000 21 11 24
-0.137109 0.278031 -0.780000 21 11 24
-0.155000 0.268468 -0.780000 21 11 24
-0.172227 0.257756 -0.780000 21 11 24
-0.188716 0.245940 -0.780000 21 11 24
-0.204397 0.233070 -0.780000 21 11 24
-0.219203 0.219203 -0.780000 21 11 24
-0.233070 0.204397 -0.780000 21 11 24
-0.245940 0.188716 -0.780000 21 11 24
-0.257756 0.172227 -0.780000 21 11 24
-0.268468 0.155000 -0.780000 21 11 24
-0.278031 0.137109 -0.780000 21 11 24
-0.286403 0.118632 -0.780000 21 11 24
-0.293548 0.099646 -0.780000 21 11 24
-0.299437 0.080234 -0.780000 21 11 24
-0.304043 0.060478 -0.780000 21 11 24
-0.307348 0.040463 -0.780000 21 11 24
-0.309336 0.020275 -0.780000 21 11 24
-0.310000 0.000000 -0.780000 21 11 24
-0.309336 -0.020275 -0.780000 23 12 25
-0.307348 -0.040463 -0.780000 24 12 26
-0.304043 -0.060478 -0.780000 25 13 27
-0.299437 -0.080234 -0.780000 27 13 28
-0.293548 -0.099646 -0.780000 28 14 30
-0.286403 -0.118632 -0.780000 29 14 31
-0.278031 -0.137109 -0.780000 30 15 32
-0.268468 -0.155000 -0.780000 32 15 33
-0.257756 -0.172227 -0.780000 33 15 34
-0.245940 -0.188716 -0.780000 34 16 35
-0.233070 -0.204397 -0.780000 35 16 36
-0.219203 -0.219203 -0.780000 36 17 37
-0.204397 -0.233070 -0.780000 37 17 37
-0.188716 -0.245940 -0.780000 38 17 38
-0.172227 -0.257756 -0.780000 38 17 39
-0.155000 -0.268468 -0.780000 39 18 40
-0.137109 -0.278031 -0.780000 40 18 40
-0.118632 -0.286403 -0.780000 40 18 41
-0.099646 -0.293548 -0.780000 41 18 41
-0.080234 -0.299437 -0.780000 41 18 41
-0.060478 -0.304043 -0.780000 41 19 42
-0.040463 -0.307348 -0.780000 42 19 42
-0.020275 -0.309336 -0.780000 42 19 42
-0.000000 -0.310000 -0.780000 42 19 42
0.020275 -0.309336 -0.780000 42 19 42
0.040463 -0.307348 -0.780000 42 19 42
0.060478 -0.304043 -0.780000 45 23 46
0.080234 -0.299437 -0.780000 60 35 59
0.099646 -0.293548 -0.780000 74 49 73
0.118632 -0.286403 -0.780000 87 62 87
0.137109 -0.278031 -0.780000 102 75 100
0.155000 -0.268468 -0.780000 115 88 114
0.172227 -0.257756 -0.780000 100 74 99
0.188716 -0.245940 -0.780000 86 61 85
0.204397 -0.233070 -0.780000 71 48 70
0.219203 -0.219203 -0.780000 55 34 56
0.233070 -0.204397 -0.780000 40 20 40
0.245940 -0.188716 -0.780000 34 16 35
0.257756 -0.172227 -0.780000 33 15 34
0.268468 -0.155000 -0.780000 32 15 33
0.278031 -0.137109 -0.780000 30 15 32
0.286403 -0.118632 -0.780000 29 14 31
0.293548 -0.099646 -0.780000 28 14 30
0.299437 -0.080234 -0.780000 27 13 28
0.304043 -0.060478 -0.780000 25 13 27
0.307348 -0.040463 -0.780000 24 12 26
0.309336 -0.020275 -0.780000 23 12 25
0.310000 0.000000 0.300000 21 11 24
0.309336 0.020275 0.300000 21 11 24
0.307348 0.040463 0.300000 21 11 24
0.304043 0.060478 0.300000 21 11 24
0.299437 0.080234 0.300000 21 11 24
0.293548 0.099646 0.300000 21 11 24
0.286403 0.118632 0.300000 21 11 24
0.278031 0.137109 0.300000 21 11 24
0.268468 0.155000 0.300000 21 11 24
0.257756 0.172227 0.300000 21 11 24
0.245940 0.188716 0.300000 21 11 24
0.233070 0.204397 0.300000 21 11 24
0.219203 0.219203 0.300000 21 11 24
0.204397 0.233070 0.300000 21 11 24
0.188716 0.245940 0.300000 21 11 24
0.172227 0.257756 0.300000 21 11 24
0.155000 0.268468 0.300000 21 11 24
0.137109 0.278031 0.300000 21 11 24
0.118632 0.286403 0.300000 21 11 24
0.099646 0.293548 0.300000 21 11 24
0.080234 0.299437 0.300000 21 11 24
0.060478 0.304043 0.300000 21 11 24
0.040463 0.307348 0.300000 21 11 24
0.020275 0.309336 0.300000 21 11 24
0.000000 0.310000 0.300000 21 11 24
-0.020275 0.309336 0.300000 21 11 24
-0.040463 0.307348 0.300000 21 11 24
-0.060478 0.304043 0.300000 21 11 24
-0.080234 0.299437 0.300000 21 11 24
-0.099646 0.293548 0.300000 21 11 24
-0.118632 0.286403 0.300000 21 11 24
-0.137109 0.278031 0.300000 21 11 24
-0.155000 0.268468 0.300000 21 11 24
-0.172227 0.257756 0.300000 21 11 24
-0.188716 0.245940 0.300000 21 11 24
-0.204397 0.233070 0.300000 21 11 24
-0.219203 0.219203 0.300000 21 11 24
-0.233070 0.204397 0.300000 21 11 24
-0.245940 0.188716 0.300000 21 11 24
-0.257756 0.172227 0.300000 21 11 24
-0.268468 0.155000 0.300000 21 11 24
-0.278031 0.137109 0.300000 21 11 24
-0.286403 0.118632 0.300000 21 11 24
-0.293548 0.099646 0.300000 21 11 24
-0.299437 0.080234 0.300000 21 11 24
-0.304043 0.060478 0.300000 21 11 24
-0.307348 0.040463 0.300000 21 11 24
-0.309336 0.020275 0.300000 21 11 24
-0.310000 0.000000 0.300000 21 11 24
-0.309336 -0.020275 0.300000 23 12 25
-0.307348 -0.040463 0.300000 24 12 26
-0.304043 -0.060478 0.300000 25 13 27
-0.299437 -0.080234 0.300000 27 13 28
-0.293548 -0.099646 0.300000 28 14 30
-0.286403 -0.118632 0.300000 29 14 31
-0.278031 -0.137109 0.300000 30 15 32
-0.268468 -0.155000 0.300000 32 15 33
-0.257756 -0.172227 0.300000 33 15 34
-0.245940 -0.188716 0.300000 34 16 35
-0.233070 -0.204397 0.300000 35 16 36
-0.219203 -0.219203 0.300000 36 17 37
-0.204397 -0.233070 0.300000 37 17 37
-0.188716 -0.245940 0.300000 38 17 38
-0.172227 -0.257756 0.300000 38 17 39
-0.155000 -0.268468 0.300000 39 18 40
-0.137109 -0.278031 0.300000 40 18 40
-0.118632 -0.286403 0.300000 40 18 41
-0.099646 -0.293548 0.300000 41 18 41
-0.080234 -0.299437 0.300000 41 18 41
-0.060478 -0.304043 0.300000 41 19 42
-0.040463 -0.307348 0.300000 42 19 42
-0.020275 -0.309336 0.300000 42 19 42
-0.000000 -0.310000 0.300000 42 19 42
0.020275 -0.309336 0.300000 42 19 42
0.040463 -0.307348 0.300000 42 19 42
0.060478 -0.304043 0.300000 45 23 46
0.080234 -0.299437 0.300000 60 35 59
0.099646 -0.293548 0.300000 74 49 73
0.118632 -0.286403 0.300000 87 62 87
0.137109 -0.278031 0.300000 102 75 100
0.155000 -0.268468 0.300000 115 88 114
0.172227 -0.257756 0.300000 100 74 99
0.188716 -0.245940 0.300000 86 61 85
0.204397 -0.233070 0.300000 71 48 70
0.219203 -0.219203 0.300000 55 34 56
0.233070 -0.204397 0.300000 40 20 40
0.245940 -0.188716 0.300000 34 16 35
0.257756 -0.172227 0.300000 33 15 34
0.268468 -0.155000 0.300000 32 15 33
0.278031 -0.137109 0.300000 30 15 32
0.286403 -0.118632 0.300000 29 14 31
0.293548 -0.099646 0.300000 28 14 30
0.299437 -0.080234 0.300000 27 13 28
0.304043 -0.060478 0.300000 25 13 27
0.307348 -0.040463 0.300000 24 12 26
0.309336 -0.020275 0.300000 23 12 25
0.000000 0.000000 -0.780000 21 11 24
0.000000 0.000000 0.300000 21 11 24
0.340000 0.000000 0.300000 16 17 19
0.339272 0.022237 0.300000 16 17 19
0.337091 0.044379 0.300000 16 17 19
0.333467 0.066331 0.300000 16 17 19
0.328415 0.087998 0.300000 16 17 19
0.321956 0.109289 0.300000 16 17 19
0.314119 0.130112 0.300000 16 17 19
0.304937 0.150378 0.300000 16 17 19
0.294449 0.170000 0.300000 16 17 19
0.282700 0.188894 0.300000 16 17 19
0.269740 0.206979 0.300000 16 17 19
0.255626 0.224178 0.300000 16 17 19
0.240416 0.240416 0.300000 16 17 19
0.224178 0.255626 0.300000 16 17 19
0.206979 0.269740 0.300000 16 17 19
0.188894 0.282700 0.300000 16 17 19
0.170000 0.294449 0.300000 16 17 19
0.150378 0.304937 0.300000 16 17 19
0.130112 0.314119 0.300000 16 17 19
0.109289 0.321956 0.300000 16 17 19
0.087998 0.328415 0.300000 16 17 19
0.066331 0.333467 0.300000 16 17 19
0.044379 0.337091 0.300000 16 17 19
0.022237 0.339272 0.300000 16 17 19
0.000000 0.340000 0.300000 16 17 19
-0.022237 0.339272 0.300000 16 17 19
-0.044379 0.337091 0.300000 16 17 19
-0.066331 0.333467 0.300000 16 17 19
-0.087998 0.328415 0.300000 16 17 19
-0.109289 0.321956 0.300000 16 17 19
-0.130112 0.314119 0.300000 16 17 19
-0.150378 0.304937 0.300000 16 17 19
-0.170000 0.294449 0.300000 16 17 19
-0.188894 0.282700 0.300000 16 17 19
-0.206979 0.269740 0.300000 16 17 19
-0.224178 0.255626 0.300000 16 17 19
-0.240416 0.240416 0.300000 16 17 19
-0.255626 0.224178 0.300000 16 17 19
-0.269740 0.206979 0.300000 16 17 19
-0.282700 0.188894 0.300000 16 17 19
-0.294449 0.170000 0.300000 16 17 19
-0.304937 0.150378 0.300000 16 17 19
-0.314119 0.130112 0.300000 16 17 19
-0.321956 0.109289 0.300000 16 17 19
-0.328415 0.087998 0.300000 16 17 19
-0.333467 0.066331 0.300000 16 17 19
-0.337091 0.044379 0.300000 16 17 19
-0.339272 0.022237 0.300000 16 17 19
-0.340000 0.000000 0.300000 16 17 19
-0.339272 -0.022237 0.300000 17 18 20
-0.337091 -0.044379 0.300000 19 20 22
-0.333467 -0.066331 0.300000 21 22 24
-0.328415 -0.087998 0.300000 22 23 25
-0.321956 -0.109289 0.300000 24 25 27
-0.314119 -0.130112 0.300000 26 27 29
-0.304937 -0.150378 0.300000 27 28 30
-0.294449 -0.170000 0.300000 29 30 32
-0.282700 -0.188894 0.300000 31 32 33
-0.269740 -0.206979 0.300000 32 33 35
-0.255626 -0.224178 0.300000 33 34 36
-0.240416 -0.240416 0.300000 35 36 37
-0.224178 -0.255626 0.300000 36 37 38
-0.206979 -0.269740 0.300000 37 38 40
-0.188894 -0.282700 0.300000 38 39 41
-0.170000 -0.294449 0.300000 39 40 41
-0.150378 -0.304937 0.300000 40 41 42
-0.130112 -0.314119 0.300000 40 41 43
-0.109289 -0.321956 0.300000 41 42 44
-0.087998 -0.328415 0.300000 42 43 44
-0.066331 -0.333467 0.300000 42 43 45
-0.044379 -0.337091 0.300000 42 43 45
-0.022237 -0.339272 0.300000 42 43 45
-0.000000 -0.340000 0.300000 43 44 45
0.022237 -0.339272 0.300000 42 43 45
0.044379 -0.337091 0.300000 42 43 45
0.066331 -0.333467 0.300000 42 43 45
0.087998 -0.328415 0.300000 42 43 44
0.109289 -0.321956 0.300000 41 42 44
0.130112 -0.314119 0.300000 40 41 43
0.150378 -0.304937 0.300000 40 41 42
0.170000 -0.294449 0.300000 39 40 41
0.188894 -0.282700 0.300000 38 39 41
0.206979 -0.269740 0.300000 37 38 40
0.224178 -0.255626 0.300000 36 37 38
0.240416 -0.240416 0.300000 35 36 37
0.255626 -0.224178 0.300000 33 34 36
0.269740 -0.206979 0.300000 32 33 35
0.282700 -0.188894 0.300000 31 32 33
0.294449 -0.170000 0.300000 29 30 32
0.304937 -0.150378 0.300000 27 28 30
0.314119 -0.130112 0.300000 26 27 29
0.321956 -0.109289 0.300000 24 25 27
0.328415 -0.087998 0.300000 22 23 25
0.333467 -0.066331 0.300000 21 22 24
0.337091 -0.044379 0.300000 19 20 22
0.339272 -0.022237 0.300000 17 18 20
0.340000 0.000000 0.540000 16 17 19
0.339272 0.022237 0.540000 16 17 19
0.337091 0.044379 0.540000 16 17 19
0.333467 0.066331 0.540000 16 17 19
0.328415 0.087998 0.540000 16 17 19
0.321956 0.109289 0.540000 16 17 19
0.314119 0.130112 0.540000 16 17 19
0.304937 0.150378 0.540000 16 17 19
0.294449 0.170000 0.540000 16 17 19
0.282700 0.188894 0.540000 16 17 19
0.269740 0.206979 0.540000 16 17 19
0.255626 0.224178 0.540000 16 17 19
0.240416 0.240416 0.540000 16 17 19
0.224178 0.255626 0.540000 16 17 19
0.206979 0.269740 0.540000 16 17 19
0.188894 0.282700 0.540000 16 17 19
0.170000 0.294449 0.540000 16 17 19
0.150378 0.304937 0.540000 16 17 19
0.130112 0.314119 0.540000 16 17 19
0.109289 0.321956 0.540000 16 17 19
0.087998 0.328415 0.540000 16 17 19
0.066331 0.333467 0.540000 16 17 19
0.044379 0.337091 0.540000 16 17 19
0.022237 0.339272 0.540000 16 17 19
0.000000 0.340000 0.540000 16 17 19
-0.022237 0.339272 0.540000 16 17 19
-0.044379 0.337091 0.540000 16 17 19
-0.066331 0.333467 0.540000 16 17 19
-0.087998 0.328415 0.540000 16 17 19
-0.109289 0.321956 0.540000 16 17 19
-0.130112 0.314119 0.540000 16 17 19
-0.150378 0.304937 0.540000 16 17 19
-0.170000 0.294449 0.540000 16 17 19
-0.188894 0.282700 0.540000 16 17 19
-0.206979 0.269740 0.540000 16 17 19
-0.224178 0.255626 0.540000 16 17 19
-0.240416 0.240416 0.540000 16 17 19
-0.255626 0.224178 0.540000 16 17 19
-0.269740 0.206979 0.540000 16 17 19
-0.282700 0.188894 0.540000 16 17 19
-0.294449 0.170000 0.540000 16 17 19
-0.304937 0.150378 0.540000 16 17 19
-0.314119 0.130112 0.540000 16 17 19
-0.321956 0.109289 0.540000 16 17 19
-0.328415 0.087998 0.540000 16 17 19
-0.333467 0.066331 0.540000 16 17 19
-0.337091 0.044379 0.540000 16 17 19
-0.339272 0.022237 0.540000 16 17 19
-0.340000 0.000000 0.540000 16 17 19
-0.339272 -0.022237 0.540000 17 18 20
-0.337091 -0.044379 0.540000 19 20 22
-0.333467 -0.066331 0.540000 21 22 24
-0.328415 -0.087998 0.540000 22 23 25
-0.321956 -0.109289 0.540000 24 25 27
-0.314119 -0.130112 0.540000 26 27 29
-0.304937 -0.150378 0.540000 27 28 30
-0.294449 -0.170000 0.540000 29 30 32
-0.282700 -0.188894 0.540000 31 32 33
-0.269740 -0.206979 0.540000 32 33 35
-0.255626 -0.224178 0.540000 33 34 36
-0.240416 -0.240416 0.540000 35 36 37
-0.224178 -0.255626 0.540000 36 37 38
-0.206979 -0.269740 0.540000 37 38 40
-0.188894 -0.282700 0.540000 38 39 41
-0.170000 -0.294449 0.540000 39 40 41
-0.150378 -0.304937 0.540000 40 41 42
-0.130112 -0.314119 0.540000 40 41 43
-0.109289 -0.321956 0.540000 41 42 44
-0.087998 -0.328415 0.540000 42 43 44
-0.066331 -0.333467 0.540000 42 43 45
-0.044379 -0.337091 0.540000 42 43 45
-0.022237 -0.339272 0.540000 42 43 45
-0.000000 -0.340000 0.540000 43 44 45
0.022237 -0.339272 0.540000 42 43 45
0.044379 -0.337091 0.540000 42 43 45
0.066331 -0.333467 0.540000 42 43 45
0.087998 -0.328415 0.540000 42 43 44
0.109289 -0.321956 0.540000 41 42 44
0.130112 -0.314119 0.540000 40 41 43
0.150378 -0.304937 0.540000 40 41 42
0.170000 -0.294449 0.540000 39 40 41
0.188894 -0.282700 0.540000 38 39 41
0.206979 -0.269740 0.540000 37 38 40
0.224178 -0.255626 0.540000 36 37 38
0.240416 -0.240416 0.540000 35 36 37
0.255626 -0.224178 0.540000 33 34 36
0.269740 -0.206979 0.540000 32 33 35
0.282700 -0.188894 0.540000 31 32 33
0.294449 -0.170000 0.540000 29 30 32
0.304937 -0.150378 0.540000 27 28 30
0.314119 -0.130112 0.540000 26 27 29
0.321956 -0.109289 0.540000 24 25 27
0.328415 -0.087998 0.540000 22 23 25
0.333467 -0.066331 0.540000 21 22 24
0.337091 -0.044379 0.540000 19 20 22
0.339272 -0.022237 0.540000 17 18 20
0.000000 0.000000 0.300000 16 17 19
0.000000 0.000000 0.540000 16 17 19
0.320000 0.000000 -0.840000 202 204 199
0.319315 0.020929 -0.840000 202 204 199
0.317262 0.041768 -0.840000 202 204 199
0.313851 0.062429 -0.840000 202 204 199
0.309096 0.082822 -0.840000 202 204 199
0.303018 0.102861 -0.840000 202 204 199
0.295641 0.122459 -0.840000 202 204 199
0.286999 0.141532 -0.840000 202 204 199
0.277128 0.160000 -0.840000 202 204 199
0.266070 0.177782 -0.840000 202 204 199
0.253873 0.194804 -0.840000 202 204 199
0.240589 0.210991 -0.840000 202 204 199
0.226274 0.226274 -0.840000 202 204 199
0.210991 0.240589 -0.840000 202 204 199
0.194804 0.253873 -0.840000 202 204 199
0.177782 0.266070 -0.840000 202 204 199
0.160000 0.277128 -0.840000 202 204 199
0.141532 0.286999 -0.840000 202 204 199
0.122459 0.295641 -0.840000 202 204 199
0.102861 0.303018 -0.840000 202 204 199
0.082822 0.309096 -0.840000 202 204 199
0.062429 0.313851 -0.840000 202 204 199
0.041768 0.317262 -0.840000 202 204 199
0.020929 0.319315 -0.840000 202 204 199
0.000000 0.320000 -0.840000 202 204 199
-0.020929 0.319315 -0.840000 202 204 199
-0.041768 0.317262 -0.840000 202 204 199
-0.062429 0.313851 -0.840000 202 204 199
-0.082822 0.309096 -0.840000 202 204 199
-0.102861 0.303018 -0.840000 202 204 199
-0.122459 0.295641 -0.840000 202 204 199
-0.141532 0.286999 -0.840000 202 204 199
-0.160000 0.277128 -0.840000 202 204 199
-0.177782 0.266070 -0.840000 202 204 199
-0.194804 0.253873 -0.840000 202 204 199
-0.210991 0.240589 -0.840000 202 204 199
-0.226274 0.226274 -0.840000 202 204 199
-0.240589 0.210991 -0.840000 202 204 199
-0.253873 0.194804 -0.840000 202 204 199
-0.266070 0.177782 -0.840000 202 204 199
-0.277128 0.160000 -0.840000 202 204 199
-0.286999 0.141532 -0.840000 202 204 199
-0.295641 0.122459 -0.840000 202 204 199
-0.303018 0.102861 -0.840000 202 204 199
-0.309096 0.082822 -0.840000 202 204 199
-0.313851 0.062429 -0.840000 202 204 199
-0.317262 0.041768 -0.840000 202 204 199
-0.319315 0.020929 -0.840000 202 204 199
-0.320000 0.000000 -0.840000 202 204 199
-0.319315 -0.020929 -0.840000 202 204 199
-0.317262 -0.041768 -0.840000 202 204 199
-0.313851 -0.062429 -0.840000 202 204 199
-0.309096 -0.082822 -0.840000 202 204 199
-0.303018 -0.102861 -0.840000 202 204 199
-0.295641 -0.122459 -0.840000 202 204 199
-0.286999 -0.141532 -0.840000 202 204 199
-0.277128 -0.160000 -0.840000 202 204 199
-0.266070 -0.177782 -0.840000 202 204 199
-0.253873 -0.194804 -0.840000 202 204 199
-0.240589 -0.210991 -0.840000 202 204 199
-0.226274 -0.226274 -0.840000 202 204 199
-0.210991 -0.240589 -0.840000 202 204 199
-0.194804 -0.253873 -0.840000 202 204 199
-0.177782 -0.266070 -0.840000 202 204 199
-0.160000 -0.277128 -0.840000 202 204 199
-0.141532 -0.286999 -0.840000 202 204 199
-0.122459 -0.295641 -0.840000 202 204 199
-0.102861 -0.303018 -0.840000 202 204 199
-0.082822 -0.309096 -0.840000 202 204 199
-0.062429 -0.313851 -0.840000 202 204 199
-0.041768 -0.317262 -0.840000 202 204 199
-0.020929 -0.319315 -0.840000 202 204 199
-0.000000 -0.320000 -0.840000 202 204 199
0.020929 -0.319315 -0.840000 202 204 199
0.041768 -0.317262 -0.840000 202 204 199
0.062429 -0.313851 -0.840000 202 204 199
0.082822 -0.309096 -0.840000 202 204 199
0.102861 -0.303018 -0.840000 202 204 199
0.122459 -0.295641 -0.840000 202 204 199
0.141532 -0.286999 -0.840000 202 204 199
0.160000 -0.277128 -0.840000 202 204 199
0.177782 -0.266070 -0.840000 202 204 199
0.194804 -0.253873 -0.840000 202 204 199
0.210991 -0.240589 -0.840000 202 204 199
0.226274 -0.226274 -0.840000 202 204 199
0.240589 -0.210991 -0.840000 202 204 199
0.253873 -0.194804 -0.840000 202 204 199
0.266070 -0.177782 -0.840000 202 204 199
0.277128 -0.160000 -0.840000 202 204 199
0.286999 -0.141532 -0.840000 202 204 199
0.295641 -0.122459 -0.840000 202 204 199
0.303018 -0.102861 -0.840000 202 204 199
0.309096 -0.082822 -0.840000 202 204 199
0.313851 -0.062429 -0.840000 202 204 199
0.317262 -0.041768 -0.840000 202 204 199
0.319315 -0.020929 -0.840000 202 204 199
0.320000 0.000000 -0.780000 202 204 199
0.319315 0.020929 -0.780000 202 204 199
0.317262 0.041768 -0.780000 202 204 199
0.313851 0.062429 -0.780000 202 204 199
0.309096 0.082822 -0.780000 202 204 199
0.303018 0.102861 -0.780000 202 204 199
0.295641 0.122459 -0.780000 202 204 199
0.286999 0.141532 -0.780000 202 204 199
0.277128 0.160000 -0.780000 202 204 199
0.266070 0.177782 -0.780000 202 204 199
0.253873 0.194804 -0.780000 202 204 199
0.240589 0.210991 -0.780000 202 204 199
0.226274 0.226274 -0.780000 202 204 199
0.210991 0.240589 -0.780000 202 204 199
0.194804 0.253873 -0.780000 202 204 199
0.177782 0.266070 -0.780000 202 204 199
0.160000 0.277128 -0.780000 202 204 199
0.141532 0.286999 -0.780000 202 204 199
0.122459 0.295641 -0.780000 202 204 199
0.102861 0.303018 -0.780000 202 204 199
0.082822 0.309096 -0.780000 202 204 199
0.062429 0.313851 -0.780000 202 204 199
0.041768 0.317262 -0.780000 202 204 199
0.020929 0.319315 -0.780000 202 204 199
0.000000 0.320000 -0.780000 202 204 199
-0.020929 0.319315 -0.780000 202 204 199
-0.041768 0.317262 -0.780000 202 204 199
-0.062429 0.313851 -0.780000 202 204 199
-0.082822 0.309096 -0.780000 202 204 199
-0.102861 0.303018 -0.780000 202 204 199
-0.122459 0.295641 -0.780000 202 204 199
-0.141532 0.286999 -0.780000 202 204 199
-0.160000 0.277128 -0.780000 202 204 199
-0.177782 0.266070 -0.780000 202 204 199
-0.194804 0.253873 -0.780000 202 204 199
-0.210991 0.240589 -0.780000 202 204 199
-0.226274 0.226274 -0.780000 202 204 199
-0.240589 0.210991 -0.780000 202 204 199
-0.253873 0.194804 -0.780000 202 204 199
-0.266070 0.177782 -0.780000 202 204 199
-0.277128 0.160000 -0.780000 202 204 199
-0.286999 0.141532 -0.780000 202 204 199
-0.295641 0.122459 -0.780000 202 204 199
-0.303018 0.102861 -0.780000 202 204 199
-0.309096 0.082822 -0.780000 202 204 199
-0.313851 0.062429 -0.780000 202 204 199
-0.317262 0.041768 -0.780000 202 204 199
-0.319315 0.020929 -0.780000 202 204 199
-0.320000 0.000000 -0.780000 202 204 199
-0.319315 -0.020929 -0.780000 202 204 199
-0.317262 -0.041768 -0.780000 202 204 199
-0.313851 -0.062429 -0.780000 202 204 199
-0.309096 -0.082822 -0.780000 202 204 199
-0.303018 -0.102861 -0.780000 202 204 199
-0.295641 -0.122459 -0.780000 202 204 199
-0.286999 -0.141532 -0.780000 202 204 199
-0.277128 -0.160000 -0.780000 202 204 199
-0.266070 -0.177782 -0.780000 202 204 199
-0.253873 -0.194804 -0.780000 202 204 199
-0.240589 -0.210991 -0.780000 202 204 199
-0.226274 -0.226274 -0.780000 202 204 199
-0.210991 -0.240589 -0.780000 202 204 199
-0.194804 -0.253873 -0.780000 202 204 199
-0.177782 -0.266070 -0.780000 202 204 199
-0.160000 -0.277128 -0.780000 202 204 199
-0.141532 -0.286999 -0.780000 202 204 199
-0.122459 -0.295641 -0.780000 202 204 199
-0.102861 -0.303018 -0.780000 202 204 199
-0.082822 -0.309096 -0.780000 202 204 199
-0.062429 -0.313851 -0.780000 202 204 199
-0.041768 -0.317262 -0.780000 202 204 199
-0.020929 -0.319315 -0.780000 202 204 199
-0.000000 -0.320000 -0.780000 202 204 199
0.020929 -0.319315 -0.780000 202 204 199
0.041768 -0.317262 -0.780000 202 204 199
0.062429 -0.313851 -0.780000 202 204 199
0.082822 -0.309096 -0.780000 202 204 199
0.102861 -0.303018 -0.780000 202 204 199
0.122459 -0.295641 -0.780000 202 204 199
0.141532 -0.286999 -0.780000 202 204 199
0.160000 -0.277128 -0.780000 202 204 199
0.177782 -0.266070 -0.780000 202 204 199
0.194804 -0.253873 -0.780000 202 204 199
0.210991 -0.240589 -0.780000 202 204 199
0.226274 -0.226274 -0.780000 202 204 199
0.240589 -0.210991 -0.780000 202 204 199
0.253873 -0.194804 -0.780000 202 204 199
0.266070 -0.177782 -0.780000 202 204 199
0.277128 -0.160000 -0.780000 202 204 199
0.286999 -0.141532 -0.780000 202 204 199
0.295641 -0.122459 -0.780000 202 204 199
0.303018 -0.102861 -0.780000 202 204 199
0.309096 -0.082822 -0.780000 202 204 199
0.313851 -0.062429 -0.780000 202 204 199
0.317262 -0.041768 -0.780000 202 204 199
0.319315 -0.020929 -0.780000 202 204 199
0.000000 0.000000 -0.840000 202 204 199
0.000000 0.000000 -0.780000 202 204 199
0.260000 0.000000 0.540000 16 17 19
0.259443 0.017005 0.540000 16 17 19
0.257776 0.033937 0.540000 16 17 19
0.255004 0.050723 0.540000 16 17 19
0.251141 0.067293 0.540000 16 17 19
0.246202 0.083574 0.540000 16 17 19
0.240209 0.099498 0.540000 16 17 19
0.233187 0.114995 0.540000 16 17 19
0.225167 0.130000 0.540000 16 17 19
0.216182 0.144448 0.540000 16 17 19
0.206272 0.158278 0.540000 16 17 19
0.195478 0.171430 0.540000 16 17 19
0.183848 0.183848 0.540000 16 17 19
0.171430 0.195478 0.540000 16 17 19
0.158278 0.206272 0.540000 16 17 19
0.144448 0.216182 0.540000 16 17 19
0.130000 0.225167 0.540000 16 17 19
0.114995 0.233187 0.540000 16 17 19
0.099498 0.240209 0.540000 16 17 19
0.083574 0.246202 0.540000 16 17 19
0.067293 0.251141 0.540000 16 17 19
0.050723 0.255004 0.540000 16 17 19
0.033937 0.257776 0.540000 16 17 19
0.017005 0.259443 0.540000 16 17 19
0.000000 0.260000 0.540000 16 17 19
-0.017005 0.259443 0.540000 16 17 19
-0.033937 0.257776 0.540000 16 17 19
-0.050723 0.255004 0.540000 16 17 19
-0.067293 0.251141 0.540000 16 17 19
-0.083574 0.246202 0.540000 16 17 19
-0.099498 0.240209 0.540000 16 17 19
-0.114995 0.233187 0.540000 16 17 19
-0.130000 0.225167 0.540000 16 17 19
-0.144448 0.216182 0.540000 16 17 19
-0.158278 0.206272 0.540000 16 17 19
-0.171430 0.195478 0.540000 16 17 19
-0.183848 0.183848 0.540000 16 17 19
-0.195478 0.171430 0.540000 16 17 19
-0.206272 0.158278 0.540000 16 17 19
-0.216182 0.144448 0.540000 16 17 19
-0.225167 0.130000 0.540000 16 17 19
-0.233187 0.114995 0.540000 16 17 19
-0.240209 0.099498 0.540000 16 17 19
-0.246202 0.083574 0.540000 16 17 19
-0.251141 0.067293 0.540000 16 17 19
-0.255004 0.050723 0.540000 16 17 19
-0.257776 0.033937 0.540000 16 17 19
-0.259443 0.017005 0.540000 16 17 19
-0.260000 0.000000 0.540000 16 17 19
-0.259443 -0.017005 0.540000 17 18 20
-0.257776 -0.033937 0.540000 19 20 22
-0.255004 -0.050723 0.540000 21 22 24
-0.251141 -0.067293 0.540000 22 23 25
-0.246202 -0.083574 0.540000 24 25 27
-0.240209 -0.099498 0.540000 26 27 29
-0.233187 -0.114995 0.540000 27 28 30
-0.225167 -0.130000 0.540000 29 30 32
-0.216182 -0.144448 0.540000 31 32 33
-0.206272 -0.158278 0.540000 32 33 35
-0.195478 -0.171430 0.540000 33 34 36
-0.183848 -0.183848 0.540000 35 36 37
-0.171430 -0.195478 0.540000 36 37 38
-0.158278 -0.206272 0.540000 37 38 40
-0.144448 -0.216182 0.540000 38 39 41
-0.130000 -0.225167 0.540000 39 40 41
-0.114995 -0.233187 0.540000 40 41 42
-0.099498 -0.240209 0.540000 40 41 43
-0.083574 -0.246202 0.540000 41 42 44
-0.067293 -0.251141 0.540000 42 43 44
-0.050723 -0.255004 0.540000 42 43 45
-0.033937 -0.257776 0.540000 42 43 45
-0.017005 -0.259443 0.540000 42 43 45
-0.000000 -0.260000 0.540000 43 44 45
0.017005 -0.259443 0.540000 42 43 45
0.033937 -0.257776 0.540000 42 43 45
0.050723 -0.255004 0.540000 42 43 45
0.067293 -0.251141 0.540000 42 43 44
0.083574 -0.246202 0.540000 41 42 44
0.099498 -0.240209 0.540000 40 41 43
0.114995 -0.233187 0.540000 40 41 42
0.130000 -0.225167 0.540000 39 40 41
0.144448 -0.216182 0.540000 38 39 41
0.158278 -0.206272 0.540000 37 38 40
0.171430 -0.195478 0.540000 36 37 38
0.183848 -0.183848 0.540000 35 36 37
0.195478 -0.171430 0.540000 33 34 36
0.206272 -0.158278 0.540000 32 33 35
0.216182 -0.144448 0.540000 31 32 33
0.225167 -0.130000 0.540000 29 30 32
0.233187 -0.114995 0.540000 27 28 30
0.240209 -0.099498 0.540000 26 27 29
0.246202 -0.083574 0.540000 24 25 27
0.251141 -0.067293 0.540000 22 23 25
0.255004 -0.050723 0.540000 21 22 24
0.257776 -0.033937 0.540000 19 20 22
0.259443 -0.017005 0.540000 17 18 20
0.260000 0.000000 0.600000 16 17 19
0.259443 0.017005 0.600000 16 17 19
0.257776 0.033937 0.600000 16 17 19
0.255004 0.050723 0.600000 16 17 19
0.251141 0.067293 0.600000 16 17 19
0.246202 0.083574 0.600000 16 17 19
0.240209 0.099498 0.600000 16 17 19
0.233187 0.114995 0.600000 16 17 19
0.225167 0.130000 0.600000 16 17 19
0.216182 0.144448 0.600000 16 17 19
0.206272 0.158278 0.600000 16 17 19
0.195478 0.171430 0.600000 16 17 19
0.183848 0.183848 0.600000 16 17 19
0.171430 0.195478 0.600000 16 17 19
0.158278 0.206272 0.600000 16 17 19
0.144448 0.216182 0.600000 16 17 19
0.130000 0.225167 0.600000 16 17 19
0.114995 0.233187 0.600000 16 17 19
0.099498 0.240209 0.600000 16 17 19
0.083574 0.246202 0.600000 16 17 19
0.067293 0.251141 0.600000 16 17 19
0.050723 0.255004 0.600000 16 17 19
0.033937 0.257776 0.600000 16 17 19
0.017005 0.259443 0.600000 16 17 19
0.000000 0.260000 0.600000 16 17 19
-0.017005 0.259443 0.600000 16 17 19
-0.033937 0.257776 0.600000 16 17 19
-0.050723 0.255004 0.600000 16 17 19
-0.067293 0.251141 0.600000 16 17 19
-0.083574 0.246202 0.600000 16 17 19
-0.099498 0.240209 0.600000 16 17 19
-0.114995 0.233187 0.600000 16 17 19
-0.130000 0.225167 0.600000 16 17 19
-0.144448 0.216182 0.600000 16 17 19
-0.158278 0.206272 0.600000 16 17 19
-0.171430 0.195478 0.600000 16 17 19
-0.183848 0.183848 0.600000 16 17 19
-0.195478 0.171430 0.600000 16 17 19
-0.206272 0.158278 0.600000 16 17 19
-0.216182 0.144448 0.600000 16 17 19
-0.225167 0.130000 0.600000 16 17 19
-0.233187 0.114995 0.600000 16 17 19
-0.240209 0.099498 0.600000 16 17 19
-0.246202 0.083574 0.600000 16 17 19
-0.251141 0.067293 0.600000 16 17 19
-0.255004 0.050723 0.600000 16 17 19
-0.257776 0.033937 0.600000 16 17 19
-0.259443 0.017005 0.600000 16 17 19
-0.260000 0.000000 0.600000 16 17 19
-0.259443 -0.017005 0.600000 17 18 20
-0.257776 -0.033937 0.600000 19 20 22
-0.255004 -0.050723 0.600000 21 22 24
-0.251141 -0.067293 0.600000 22 23 25
-0.246202 -0.083574 0.600000 24 25 27
-0.240209 -0.099498 0.600000 26 27 29
-0.233187 -0.114995 0.600000 27 28 30
-0.225167 -0.130000 0.600000 29 30 32
-0.216182 -0.144448 0.600000 31 32 33
-0.206272 -0.158278 0.600000 32 33 35
-0.195478 -0.171430 0.600000 33 34 36
-0.183848 -0.183848 0.600000 35 36 37
-0.171430 -0.195478 0.600000 36 37 38
-0.158278 -0.206272 0.600000 37 38 40
-0.144448 -0.216182 0.600000 38 39 41
-0.130000 -0.225167 0.600000 39 40 41
-0.114995 -0.233187 0.600000 40 41 42
-0.099498 -0.240209 0.600000 40 41 43
-0.083574 -0.246202 0.600000 41 42 44
-0.067293 -0.251141 0.600000 42 43 44
-0.050723 -0.255004 0.600000 42 43 45
-0.033937 -0.257776 0.600000 42 43 45
-0.017005 -0.259443 0.600000 42 43 45
-0.000000 -0.260000 0.600000 43 44 45
0.017005 -0.259443 0.600000 42 43 45
0.033937 -0.257776 0.600000 42 43 45
0.050723 -0.255004 0.600000 42 43 45
0.067293 -0.251141 0.600000 42 43 44
0.083574 -0.246202 0.600000 41 42 44
0.099498 -0.240209 0.600000 40 41 43
0.114995 -0.233187 0.600000 40 41 42
0.130000 -0.225167 0.600000 39 40 41
0.144448 -0.216182 0.600000 38 39 41
0.158278 -0.206272 0.600000 37 38 40
0.171430 -0.195478 0.600000 36 37 38
0.183848 -0.183848 0.600000 35 36 37
0.195478 -0.171430 0.600000 33 34 36
0.206272 -0.158278 0.600000 32 33 35
0.216182 -0.144448 0.600000 31 32 33
0.225167 -0.130000 0.600000 29 30 32
0.233187 -0.114995 0.600000 27 28 30
0.240209 -0.099498 0.600000 26 27 29
0.246202 -0.083574 0.600000 24 25 27
0.251141 -0.067293 0.600000 22 23 25
0.255004 -0.050723 0.600000 21 22 24
0.257776 -0.033937 0.600000 19 20 22
0.259443 -0.017005 0.600000 17 18 20
0.000000 0.000000 0.540000 16 17 19
0.000000 0.000000 0.600000 16 17 19
0.000000 -0.365000 0.425000 8 9 10
0.075000 -0.365000 0.490000 8 9 10
0.073847 -0.365000 0.501705 8 9 10
0.070433 -0.365000 0.512961 8 9 10
0.064888 -0.365000 0.523334 8 9 10
0.057426 -0.365000 0.532426 8 9 10
0.048334 -0.365000 0.539888 8 9 10
0.037961 -0.365000 0.545433 8 9 10
0.026705 -0.365000 0.548847 8 9 10
0.015000 -0.365000 0.550000 8 9 10
-0.015000 -0.365000 0.550000 8 9 10
-0.026705 -0.365000 0.548847 8 9 10
-0.037961 -0.365000 0.545433 8 9 10
-0.048334 -0.365000 0.539888 8 9 10
-0.057426 -0.365000 0.532426 8 9 10
-0.064888 -0.365000 0.523334 8 9 10
-0.070433 -0.365000 0.512961 8 9 10
-0.073847 -0.365000 0.501705 8 9 10
-0.075000 -0.365000 0.490000 8 9 10
-0.075000 -0.365000 0.360000 8 9 10
-0.073847 -0.365000 0.348295 8 9 10
-0.070433 -0.365000 0.337039 8 9 10
-0.064888 -0.365000 0.326666 8 9 10
-0.057426 -0.365000 0.317574 8 9 10
-0.048334 -0.365000 0.310112 8 9 10
-0.037961 -0.365000 0.304567 8 9 10
-0.026705 -0.365000 0.301153 8 9 10
-0.015000 -0.365000 0.300000 8 9 10
0.015000 -0.365000 0.300000 8 9 10
0.026705 -0.365000 0.301153 8 9 10
0.037961 -0.365000 0.304567 8 9 10
0.048334 -0.365000 0.310112 8 9 10
0.057426 -0.365000 0.317574 8 9 10
0.064888 -0.365000 0.326666 8 9 10
0.070433 -0.365000 0.337039 8 9 10
0.073847 -0.365000 0.348295 8 9 10
0.075000 -0.365000 0.360000 8 9 10
0.000000 -0.373000 0.420000 4 5 8
0.055000 -0.373000 0.420000 4 5 8
0.054323 -0.373000 0.428604 4 5 8
0.052308 -0.373000 0.436996 4 5 8
0.049005 -0.373000 0.444969 4 5 8
0.044496 -0.373000 0.452328 4 5 8
0.038891 -0.373000 0.458891 4 5 8
0.032328 -0.373000 0.464496 4 5 8
0.024969 -0.373000 0.469005 4 5 8
0.016996 -0.373000 0.472308 4 5 8
0.008604 -0.373000 0.474323 4 5 8
0.000000 -0.373000 0.475000 4 5 8
-0.008604 -0.373000 0.474323 4 5 8
-0.016996 -0.373000 0.472308 4 5 8
-0.024969 -0.373000 0.469005 4 5 8
-0.032328 -0.373000 0.464496 4 5 8
-0.038891 -0.373000 0.458891 4 5 8
-0.044496 -0.373000 0.452328 4 5 8
-0.049005 -0.373000 0.444969 4 5 8
-0.052308 -0.373000 0.436996 4 5 8
-0.054323 -0.373000 0.428604 4 5 8
-0.055000 -0.373000 0.420000 4 5 8
-0.054323 -0.373000 0.411396 4 5 8
-0.052308 -0.373000 0.403004 4 5 8
-0.049005 -0.373000 0.395031 4 5 8
-0.044496 -0.373000 0.387672 4 5 8
-0.038891 -0.373000 0.381109 4 5 8
-0.032328 -0.373000 0.375504 4 5 8
-0.024969 -0.373000 0.370995 4 5 8
-0.016996 -0.373000 0.367692 4 5 8
-0.008604 -0.373000 0.365677 4 5 8
-0.000000 -0.373000 0.365000 4 5 8
0.008604 -0.373000 0.365677 4 5 8
0.016996 -0.373000 0.367692 4 5 8
0.024969 -0.373000 0.370995 4 5 8
0.032328 -0.373000 0.375504 4 5 8
0.038891 -0.373000 0.381109 4 5 8
0.044496 -0.373000 0.387672 4 5 8
0.049005 -0.373000 0.395031 4 5 8
0.052308 -0.373000 0.403004 4 5 8
0.054323 -0.373000 0.411396 4 5 8
0.000000 -0.375000 0.335000 182 215 20
0.026000 -0.375000 0.335000 182 215 20
0.025680 -0.375000 0.339067 182 215 20
0.024727 -0.375000 0.343034 182 215 20
0.023166 -0.375000 0.346804 182 215 20
0.021034 -0.375000 0.350282 182 215 20
0.018385 -0.375000 0.353385 182 215 20
0.015282 -0.375000 0.356034 182 215 20
0.011804 -0.375000 0.358166 182 215 20
0.008034 -0.375000 0.359727 182 215 20
0.004067 -0.375000 0.360680 182 215 20
0.000000 -0.375000 0.361000 182 215 20
-0.004067 -0.375000 0.360680 182 215 20
-0.008034 -0.375000 0.359727 182 215 20
-0.011804 -0.375000 0.358166 182 215 20
-0.015282 -0.375000 0.356034 182 215 20
-0.018385 -0.375000 0.353385 182 215 20
-0.021034 -0.375000 0.350282 182 215 20
-0.023166 -0.375000 0.346804 182 215 20
-0.024727 -0.375000 0.343034 182 215 20
-0.025680 -0.375000 0.339067 182 215 20
-0.026000 -0.375000 0.335000 182 215 20
-0.025680 -0.375000 0.330933 182 215 20
-0.024727 -0.375000 0.326966 182 215 20
-0.023166 -0.375000 0.323196 182 215 20
-0.021034 -0.375000 0.319718 182 215 20
-0.018385 -0.375000 0.316615 182 215 20
-0.015282 -0.375000 0.313966 182 215 20
-0.011804 -0.375000 0.311834 182 215 20
-0.008034 -0.375000 0.310273 182 215 20
-0.004067 -0.375000 0.309320 182 215 20
-0.000000 -0.375000 0.309000 182 215 20
0.004067 -0.375000 0.309320 182 215 20
0.008034 -0.375000 0.310273 182 215 20
0.011804 -0.375000 0.311834 182 215 20
0.015282 -0.375000 0.313966 182 215 20
0.018385 -0.375000 0.316615 182 215 20
0.021034 -0.375000 0.319718 182 215 20
0.023166 -0.375000 0.323196 182 215 20
0.024727 -0.375000 0.326966 182 215 20
0.025680 -0.375000 0.330933 182 215 20
-0.075000 -0.381000 0.470000 182 215 20
-0.047500 -0.381000 0.555000 182 215 20
-0.047980 -0.381000 0.559877 182 215 20
-0.049403 -0.381000 0.564567 182 215 20
-0.051713 -0.381000 0.568889 182 215 20
-0.054822 -0.381000 0.572678 182 215 20
-0.058611 -0.381000 0.575787 182 215 20
-0.062933 -0.381000 0.578097 182 215 20
-0.067623 -0.381000 0.579520 182 215 20
-0.072500 -0.381000 0.580000 182 215 20
-0.077500 -0.381000 0.580000 182 215 20
-0.082377 -0.381000 0.579520 182 215 20
-0.087067 -0.381000 0.578097 182 215 20
-0.091389 -0.381000 0.575787 182 215 20
-0.095178 -0.381000 0.572678 182 215 20
-0.098287 -0.381000 0.568889 182 215 20
-0.100597 -0.381000 0.564567 182 215 20
-0.102020 -0.381000 0.559877 182 215 20
-0.102500 -0.381000 0.555000 182 215 20
-0.102500 -0.381000 0.385000 182 215 20
-0.102020 -0.381000 0.380123 182 215 20
-0.100597 -0.381000 0.375433 182 215 20
-0.098287 -0.381000 0.371111 182 215 20
-0.095178 -0.381000 0.367322 182 215 20
-0.091389 -0.381000 0.364213 182 215 20
-0.087067 -0.381000 0.361903 182 215 20
-0.082377 -0.381000 0.360480 182 215 20
-0.077500 -0.381000 0.360000 182 215 20
-0.072500 -0.381000 0.360000 182 215 20
-0.067623 -0.381000 0.360480 182 215 20
-0.062933 -0.381000 0.361903 182 215 20
-0.058611 -0.381000 0.364213 182 215 20
-0.054822 -0.381000 0.367322 182 215 20
-0.051713 -0.381000 0.371111 182 215 20
-0.049403 -0.381000 0.375433 182 215 20
-0.047980 -0.381000 0.380123 182 215 20
-0.047500 -0.381000 0.385000 182 215 20
0.075000 -0.381000 0.470000 182 215 20
0.102500 -0.381000 0.555000 182 215 20
0.102020 -0.381000 0.559877 182 215 20
0.100597 -0.381000 0.564567 182 215 20
0.098287 -0.381000 0.568889 182 215 20
0.095178 -0.381000 0.572678 182 215 20
0.091389 -0.381000 0.575787 182 215 20
0.087067 -0.381000 0.578097 182 215 20
0.082377 -0.381000 0.579520 182 215 20
0.077500 -0.381000 0.580000 182 215 20
0.072500 -0.381000 0.580000 182 215 20
0.067623 -0.381000 0.579520 182 215 20
0.062933 -0.381000 0.578097 182 215 20
0.058611 -0.381000 0.575787 182 215 20
0.054822 -0.381000 0.572678 182 215 20
0.051713 -0.381000 0.568889 182 215 20
0.049403 -0.381000 0.564567 182 215 20
0.047980 -0.381000 0.559877 182 215 20
0.047500 -0.381000 0.555000 182 215 20
0.047500 -0.381000 0.385000 182 215 20
0.047980 -0.381000 0.380123 182 215 20
0.049403 -0.381000 0.375433 182 215 20
0.051713 -0.381000 0.371111 182 215 20
0.054822 -0.381000 0.367322 182 215 20
0.058611 -0.381000 0.364213 182 215 20
0.062933 -0.381000 0.361903 182 215 20
0.067623 -0.381000 0.360480 182 215 20
0.072500 -0.381000 0.360000 182 215 20
0.077500 -0.381000 0.360000 182 215 20
0.082377 -0.381000 0.360480 182 215 20
0.087067 -0.381000 0.361903 182 215 20
0.091389 -0.381000 0.364213 182 215 20
0.095178 -0.381000 0.367322 182 215 20
0.098287 -0.381000 0.371111 182 215 20
0.100597 -0.381000 0.375433 182 215 20
0.102020 -0.381000 0.380123 182 215 20
0.102500 -0.381000 0.385000 182 215 20
0.000000 -0.381000 0.585000 182 215 20
0.090000 -0.381000 0.585500 182 215 20
0.089385 -0.381000 0.591743 182 215 20
0.087564 -0.381000 0.597746 182 215 20
0.084607 -0.381000 0.603278 182 215 20
0.080627 -0.381000 0.608127 182 215 20
0.075778 -0.381000 0.612107 182 215 20
0.070246 -0.381000 0.615064 182 215 20
0.064243 -0.381000 0.616885 182 215 20
0.058000 -0.381000 0.617500 182 215 20
-0.058000 -0.381000 0.617500 182 215 20
-0.064243 -0.381000 0.616885 182 215 20
-0.070246 -0.381000 0.615064 182 215 20
-0.075778 -0.381000 0.612107 182 215 20
-0.080627 -0.381000 0.608127 182 215 20
-0.084607 -0.381000 0.603278 182 215 20
-0.087564 -0.381000 0.597746 182 215 20
-0.089385 -0.381000 0.591743 182 215 20
-0.090000 -0.381000 0.585500 182 215 20
-0.090000 -0.381000 0.584500 182 215 20
-0.089385 -0.381000 0.578257 182 215 20
-0.087564 -0.381000 0.572254 182 215 20
-0.084607 -0.381000 0.566722 182 215 20
-0.080627 -0.381000 0.561873 182 215 20
-0.075778 -0.381000 0.557893 182 215 20
-0.070246 -0.381000 0.554936 182 215 20
-0.064243 -0.381000 0.553115 182 215 20
-0.058000 -0.381000 0.552500 182 215 20
0.058000 -0.381000 0.552500 182 215 20
0.064243 -0.381000 0.553115 182 215 20
0.070246 -0.381000 0.554936 182 215 20
0.075778 -0.381000 0.557893 182 215 20
0.080627 -0.381000 0.561873 182 215 20
0.084607 -0.381000 0.566722 182 215 20
0.087564 -0.381000 0.572254 182 215 20
0.089385 -0.381000 0.578257 182 215 20
0.090000 -0.381000 0.584500 182 215 20
-0.170000 -0.318000 -0.430000 245 246 242
-0.162594 -0.318000 -0.410194 245 246 242
-0.141468 -0.318000 -0.409271 245 246 242
-0.158017 -0.318000 -0.396106 245 246 242
-0.152366 -0.318000 -0.375729 245 246 242
-0.170000 -0.318000 -0.387400 245 246 242
-0.187634 -0.318000 -0.375729 245 246 242
-0.181983 -0.318000 -0.396106 245 246 242
-0.198532 -0.318000 -0.409271 245 246 242
-0.177406 -0.318000 -0.410194 245 246 242
-0.170000 -0.318000 -0.400000 245 246 242
-0.110000 -0.318000 -0.183000 245 246 242
-0.104322 -0.318000 -0.167815 245 246 242
-0.088126 -0.318000 -0.167107 245 246 242
-0.100813 -0.318000 -0.157015 245 246 242
-0.096481 -0.318000 -0.141393 245 246 242
-0.110000 -0.318000 -0.150340 245 246 242
-0.123519 -0.318000 -0.141393 245 246 242
-0.119187 -0.318000 -0.157015 245 246 242
-0.131874 -0.318000 -0.167107 245 246 242
-0.115678 -0.318000 -0.167815 245 246 242
-0.110000 -0.318000 -0.160000 245 246 242
-0.020000 -0.318000 -0.050000 245 246 242
-0.015063 -0.318000 -0.036796 245 246 242
-0.000979 -0.318000 -0.036180 245 246 242
-0.012011 -0.318000 -0.027404 245 246 242
-0.008244 -0.318000 -0.013820 245 246 242
-0.020000 -0.318000 -0.021600 245 246 242
-0.031756 -0.318000 -0.013820 245 246 242
-0.027989 -0.318000 -0.027404 245 246 242
-0.039021 -0.318000 -0.036180 245 246 242
-0.024937 -0.318000 -0.036796 245 246 242
-0.020000 -0.318000 -0.030000 245 246 242
0.090000 -0.318000 -0.256000 245 246 242
0.096419 -0.318000 -0.238834 245 246 242
0.114727 -0.318000 -0.238034 245 246 242
0.100386 -0.318000 -0.226626 245 246 242
0.105282 -0.318000 -0.208966 245 246 242
0.090000 -0.318000 -0.219080 245 246 242
0.074718 -0.318000 -0.208966 245 246 242
0.079614 -0.318000 -0.226626 245 246 242
0.065273 -0.318000 -0.238034 245 246 242
0.083581 -0.318000 -0.238834 245 246 242
0.090000 -0.318000 -0.230000 245 246 242
0.180000 -0.318000 -0.100000 245 246 242
0.184937 -0.318000 -0.086796 245 246 242
0.199021 -0.318000 -0.086180 245 246 242
0.187989 -0.318000 -0.077404 245 246 242
0.191756 -0.318000 -0.063820 245 246 242
0.180000 -0.318000 -0.071600 245 246 242
0.168244 -0.318000 -0.063820 245 246 242
0.172011 -0.318000 -0.077404 245 246 242
0.160979 -0.318000 -0.086180 245 246 242
0.175063 -0.318000 -0.086796 245 246 242
0.180000 -0.318000 -0.080000 245 246 242
0.200000 -0.318000 -0.544000 245 246 242
0.205925 -0.318000 -0.528155 245 246 242
0.222825 -0.318000 -0.527416 245 246 242
0.209587 -0.318000 -0.516885 245 246 242
0.214107 -0.318000 -0.500584 245 246 242
0.200000 -0.318000 -0.509920 245 246 242
0.185893 -0.318000 -0.500584 245 246 242
0.190413 -0.318000 -0.516885 245 246 242
0.177175 -0.318000 -0.527416 245 246 242
0.194075 -0.318000 -0.528155 245 246 242
0.200000 -0.318000 -0.520000 245 246 242
-0.200000 -0.318000 -0.646000 245 246 242
-0.193581 -0.318000 -0.628834 245 246 242
-0.175273 -0.318000 -0.628034 245 246 242
-0.189614 -0.318000 -0.616626 245 246 242
-0.184718 -0.318000 -0.598966 245 246 242
-0.200000 -0.318000 -0.609080 245 246 242
-0.215282 -0.318000 -0.598966 245 246 242
-0.210386 -0.318000 -0.616626 245 246 242
-0.224727 -0.318000 -0.628034 245 246 242
-0.206419 -0.318000 -0.628834 245 246 242
-0.200000 -0.318000 -0.620000 245 246 242
-0.200000 -0.319000 -0.500000 245 246 242
-0.194000 -0.319000 -0.500000 245 246 242
-0.194594 -0.319000 -0.497397 245 246 242
-0.196259 -0.319000 -0.495309 245 246 242
-0.198665 -0.319000 -0.494150 245 246 242
-0.201335 -0.319000 -0.494150 245 246 242
-0.203741 -0.319000 -0.495309 245 246 242
-0.205406 -0.319000 -0.497397 245 246 242
-0.206000 -0.319000 -0.500000 245 246 242
-0.205406 -0.319000 -0.502603 245 246 242
-0.203741 -0.319000 -0.504691 245 246 242
-0.201335 -0.319000 -0.505850 245 246 242
-0.198665 -0.319000 -0.505850 245 246 242
-0.196259 -0.319000 -0.504691 245 246 242
-0.194594 -0.319000 -0.502603 245 246 242
-0.186970 -0.319000 -0.451085 245 246 242
-0.176970 -0.319000 -0.451085 245 246 242
-0.177960 -0.319000 -0.446746 245 246 242
-0.180735 -0.319000 -0.443266 245 246 242
-0.184744 -0.319000 -0.441335 245 246 242
-0.189195 -0.319000 -0.441335 245 246 242
-0.193205 -0.319000 -0.443266 245 246 242
-0.195979 -0.319000 -0.446746 245 246 242
-0.196970 -0.319000 -0.451085 245 246 242
-0.195979 -0.319000 -0.455423 245 246 242
-0.193205 -0.319000 -0.458903 245 246 242
-0.189195 -0.319000 -0.460834 245 246 242
-0.184744 -0.319000 -0.460834 245 246 242
-0.180735 -0.319000 -0.458903 245 246 242
-0.177960 -0.319000 -0.455423 245 246 242
-0.173939 -0.319000 -0.402558 245 246 242
-0.159939 -0.319000 -0.402558 245 246 242
-0.161326 -0.319000 -0.396484 245 246 242
-0.165211 -0.319000 -0.391612 245 246 242
-0.170824 -0.319000 -0.388909 245 246 242
-0.177055 -0.319000 -0.388909 245 246 242
-0.182668 -0.319000 -0.391612 245 246 242
-0.186553 -0.319000 -0.396484 245 246 242
-0.187939 -0.319000 -0.402558 245 246 242
-0.186553 -0.319000 -0.408632 245 246 242
-0.182668 -0.319000 -0.413504 245 246 242
-0.177055 -0.319000 -0.416207 245 246 242
-0.170824 -0.319000 -0.416207 245 246 242
-0.165211 -0.319000 -0.413504 245 246 242
-0.161326 -0.319000 -0.408632 245 246 242
-0.160909 -0.319000 -0.354806 245 246 242
-0.154909 -0.319000 -0.354806 245 246 242
-0.155503 -0.319000 -0.352203 245 246 242
-0.157168 -0.319000 -0.350115 245 246 242
-0.159574 -0.319000 -0.348957 245 246 242
-0.162244 -0.319000 -0.348957 245 246 242
-0.164650 -0.319000 -0.350115 245 246 242
-0.166315 -0.319000 -0.352203 245 246 242
-0.166909 -0.319000 -0.354806 245 246 242
-0.166315 -0.319000 -0.357410 245 246 242
-0.164650 -0.319000 -0.359497 245 246 242
-0.162244 -0.319000 -0.360656 245 246 242
-0.159574 -0.319000 -0.360656 245 246 242
-0.157168 -0.319000 -0.359497 245 246 242
-0.155503 -0.319000 -0.357410 245 246 242
-0.147879 -0.319000 -0.308209 245 246 242
-0.137879 -0.319000 -0.308209 245 246 242
-0.138869 -0.319000 -0.303871 245 246 242
-0.141644 -0.319000 -0.300391 245 246 242
-0.145654 -0.319000 -0.298460 245 246 242
-0.150104 -0.319000 -0.298460 245 246 242
-0.154114 -0.319000 -0.300391 245 246 242
-0.156888 -0.319000 -0.303871 245 246 242
-0.157879 -0.319000 -0.308209 245 246 242
-0.156888 -0.319000 -0.312548 245 246 242
-0.154114 -0.319000 -0.316028 245 246 242
-0.150104 -0.319000 -0.317959 245 246 242
-0.145654 -0.319000 -0.317959 245 246 242
-0.141644 -0.319000 -0.316028 245 246 242
-0.138869 -0.319000 -0.312548 245 246 242
-0.134848 -0.319000 -0.263139 245 246 242
-0.120848 -0.319000 -0.263139 245 246 242
-0.122235 -0.319000 -0.257064 245 246 242
-0.126120 -0.319000 -0.252193 245 246 242
-0.131733 -0.319000 -0.249490 245 246 242
-0.137964 -0.319000 -0.249490 245 246 242
-0.143577 -0.319000 -0.252193 245 246 242
-0.147462 -0.319000 -0.257064 245 246 242
-0.148848 -0.319000 -0.263139 245 246 242
-0.147462 -0.319000 -0.269213 245 246 242
-0.143577 -0.319000 -0.274084 245 246 242
-0.137964 -0.319000 -0.276788 245 246 242
-0.131733 -0.319000 -0.276788 245 246 242
-0.126120 -0.319000 -0.274084 245 246 242
-0.122235 -0.319000 -0.269213 245 246 242
-0.121818 -0.319000 -0.219953 245 246 242
-0.115818 -0.319000 -0.219953 245 246 242
-0.116412 -0.319000 -0.217350 245 246 242
-0.118077 -0.319000 -0.215262 245 246 242
-0.120483 -0.319000 -0.214104 245 246 242
-0.123153 -0.319000 -0.214104 245 246 242
-0.125559 -0.319000 -0.215262 245 246 242
-0.127224 -0.319000 -0.217350 245 246 242
-0.127818 -0.319000 -0.219953 245 246 242
-0.127224 -0.319000 -0.222557 245 246 242
-0.125559 -0.319000 -0.224644 245 246 242
-0.123153 -0.319000 -0.225803 245 246 242
-0.120483 -0.319000 -0.225803 245 246 242
-0.118077 -0.319000 -0.224644 245 246 242
-0.116412 -0.319000 -0.222557 245 246 242
-0.108788 -0.319000 -0.178998 245 246 242
-0.098788 -0.319000 -0.178998 245 246 242
-0.099778 -0.319000 -0.174660 245 246 242
-0.102553 -0.319000 -0.171180 245 246 242
-0.106563 -0.319000 -0.169249 245 246 242
-0.111013 -0.319000 -0.169249 245 246 242
-0.115023 -0.319000 -0.171180 245 246 242
-0.117798 -0.319000 -0.174660 245 246 242
-0.118788 -0.319000 -0.178998 245 246 242
-0.117798 -0.319000 -0.183337 245 246 242
-0.115023 -0.319000 -0.186817 245 246 242
-0.111013 -0.319000 -0.188748 245 246 242
-0.106563 -0.319000 -0.188748 245 246 242
-0.102553 -0.319000 -0.186817 245 246 242
-0.099778 -0.319000 -0.183337 245 246 242
-0.095758 -0.319000 -0.140602 245 246 242
-0.081758 -0.319000 -0.140602 245 246 242
-0.083144 -0.319000 -0.134528 245 246 242
-0.087029 -0.319000 -0.129656 245 246 242
-0.092642 -0.319000 -0.126953 245 246 242
-0.098873 -0.319000 -0.126953 245 246 242
-0.104486 -0.319000 -0.129656 245 246 242
-0.108371 -0.319000 -0.134528 245 246 242
-0.109758 -0.319000 -0.140602 245 246 242
-0.108371 -0.319000 -0.146676 245 246 242
-0.104486 -0.319000 -0.151548 245 246 242
-0.098873 -0.319000 -0.154251 245 246 242
-0.092642 -0.319000 -0.154251 245 246 242
-0.087029 -0.319000 -0.151548 245 246 242
-0.083144 -0.319000 -0.146676 245 246 242
-0.082727 -0.319000 -0.105072 245 246 242
-0.076727 -0.319000 -0.105072 245 246 242
-0.077321 -0.319000 -0.102469 245 246 242
-0.078986 -0.319000 -0.100381 245 246 242
-0.081392 -0.319000 -0.099223 245 246 242
-0.084062 -0.319000 -0.099223 245 246 242
-0.086468 -0.319000 -0.100381 245 246 242
-0.088133 -0.319000 -0.102469 245 246 242
-0.088727 -0.319000 -0.105072 245 246 242
-0.088133 -0.319000 -0.107675 245 246 242
-0.086468 -0.319000 -0.109763 245 246 242
-0.084062 -0.319000 -0.110922 245 246 242
-0.081392 -0.319000 -0.110922 245 246 242
-0.078986 -0.319000 -0.109763 245 246 242
-0.077321 -0.319000 -0.107675 245 246 242
-0.069697 -0.319000 -0.072695 245 246 242
-0.059697 -0.319000 -0.072695 245 246 242
-0.060687 -0.319000 -0.068356 245 246 242
-0.063462 -0.319000 -0.064877 245 246 242
-0.067472 -0.319000 -0.062946 245 246 242
-0.071922 -0.319000 -0.062946 245 246 242
-0.075932 -0.319000 -0.064877 245 246 242
-0.078707 -0.319000 -0.068356 245 246 242
-0.079697 -0.319000 -0.072695 245 246 242
-0.078707 -0.319000 -0.077034 245 246 242
-0.075932 -0.319000 -0.080514 245 246 242
-0.071922 -0.319000 -0.082444 245 246 242
-0.067472 -0.319000 -0.082444 245 246 242
-0.063462 -0.319000 -0.080514 245 246 242
-0.060687 -0.319000 -0.077034 245 246 242
-0.056667 -0.319000 -0.043733 245 246 242
-0.042667 -0.319000 -0.043733 245 246 242
-0.044053 -0.319000 -0.037659 245 246 242
-0.047938 -0.319000 -0.032788 245 246 242
-0.053551 -0.319000 -0.030084 245 246 242
-0.059782 -0.319000 -0.030084 245 246 242
-0.065396 -0.319000 -0.032788 245 246 242
-0.069280 -0.319000 -0.037659 245 246 242
-0.070667 -0.319000 -0.043733 245 246 242
-0.069280 -0.319000 -0.049808 245 246 242
-0.065396 -0.319000 -0.054679 245 246 242
-0.059782 -0.319000 -0.057382 245 246 242
-0.053551 -0.319000 -0.057382 245 246 242
-0.047938 -0.319000 -0.054679 245 246 242
-0.044053 -0.319000 -0.049808 245 246 242
-0.043636 -0.319000 -0.018423 245 246 242
-0.037636 -0.319000 -0.018423 245 246 242
-0.038231 -0.319000 -0.015819 245 246 242
-0.039895 -0.319000 -0.013732 245 246 242
-0.042301 -0.319000 -0.012573 245 246 242
-0.044971 -0.319000 -0.012573 245 246 242
-0.047377 -0.319000 -0.013732 245 246 242
-0.049042 -0.319000 -0.015819 245 246 242
-0.049636 -0.319000 -0.018423 245 246 242
-0.049042 -0.319000 -0.021026 245 246 242
-0.047377 -0.319000 -0.023114 245 246 242
-0.044971 -0.319000 -0.024272 245 246 242
-0.042301 -0.319000 -0.024272 245 246 242
-0.039895 -0.319000 -0.023114 245 246 242
-0.038231 -0.319000 -0.021026 245 246 242
-0.030606 -0.319000 0.003029 245 246 242
-0.020606 -0.319000 0.003029 245 246 242
-0.021596 -0.319000 0.007368 245 246 242
-0.024371 -0.319000 0.010847 245 246 242
-0.028381 -0.319000 0.012778 245 246 242
-0.032831 -0.319000 0.012778 245 246 242
-0.036841 -0.319000 0.010847 245 246 242
-0.039616 -0.319000 0.007368 245 246 242
-0.040606 -0.319000 0.003029 245 246 242
-0.039616 -0.319000 -0.001310 245 246 242
-0.036841 -0.319000 -0.004789 245 246 242
-0.032831 -0.319000 -0.006720 245 246 242
-0.028381 -0.319000 -0.006720 245 246 242
-0.024371 -0.319000 -0.004789 245 246 242
-0.021596 -0.319000 -0.001310 245 246 242
-0.017576 -0.319000 0.020443 245 246 242
-0.003576 -0.319000 0.020443 245 246 242
-0.004962 -0.319000 0.026517 245 246 242
-0.008847 -0.319000 0.031389 245 246 242
-0.014460 -0.319000 0.034092 245 246 242
-0.020691 -0.319000 0.034092 245 246 242
-0.026305 -0.319000 0.031389 245 246 242
-0.030189 -0.319000 0.026517 245 246 242
-0.031576 -0.319000 0.020443 245 246 242
-0.030189 -0.319000 0.014369 245 246 242
-0.026305 -0.319000 0.009497 245 246 242
-0.020691 -0.319000 0.006794 245 246 242
-0.014460 -0.319000 0.006794 245 246 242
-0.008847 -0.319000 0.009497 245 246 242
-0.004962 -0.319000 0.014369 245 246 242
-0.004545 -0.319000 0.033672 245 246 242
0.001455 -0.319000 0.033672 245 246 242
0.000860 -0.319000 0.036276 245 246 242
-0.000805 -0.319000 0.038363 245 246 242
-0.003210 -0.319000 0.039522 245 246 242
-0.005881 -0.319000 0.039522 245 246 242
-0.008286 -0.319000 0.038363 245 246 242
-0.009951 -0.319000 0.036276 245 246 242
-0.010545 -0.319000 0.033672 245 246 242
-0.009951 -0.319000 0.031069 245 246 242
-0.008286 -0.319000 0.028981 245 246 242
-0.005881 -0.319000 0.027823 245 246 242
-0.003210 -0.319000 0.027823 245 246 242
-0.000805 -0.319000 0.028981 245 246 242
0.000860 -0.319000 0.031069 245 246 242
0.008485 -0.319000 0.042602 245 246 242
0.018485 -0.319000 0.042602 245 246 242
0.017495 -0.319000 0.046940 245 246 242
0.014720 -0.319000 0.050420 245 246 242
0.010710 -0.319000 0.052351 245 246 242
0.006260 -0.319000 0.052351 245 246 242
0.002250 -0.319000 0.050420 245 246 242
-0.000525 -0.319000 0.046940 245 246 242
-0.001515 -0.319000 0.042602 245 246 242
-0.000525 -0.319000 0.038263 245 246 242
0.002250 -0.319000 0.034783 245 246 242
0.006260 -0.319000 0.032852 245 246 242
0.010710 -0.319000 0.032852 245 246 242
0.014720 -0.319000 0.034783 245 246 242
0.017495 -0.319000 0.038263 245 246 242
0.021515 -0.319000 0.047148 245 246 242
0.035515 -0.319000 0.047148 245 246 242
0.034129 -0.319000 0.053222 245 246 242
0.030244 -0.319000 0.058094 245 246 242
0.024630 -0.319000 0.060797 245 246 242
0.018400 -0.319000 0.060797 245 246 242
0.012786 -0.319000 0.058094 245 246 242
0.008902 -0.319000 0.053222 245 246 242
0.007515 -0.319000 0.047148 245 246 242
0.008902 -0.319000 0.041074 245 246 242
0.012786 -0.319000 0.036202 245 246 242
0.018400 -0.319000 0.033499 245 246 242
0.024630 -0.319000 0.033499 245 246 242
0.030244 -0.319000 0.036202 245 246 242
0.034129 -0.319000 0.041074 245 246 242
0.034545 -0.319000 0.047263 245 246 242
0.040545 -0.319000 0.047263 245 246 242
0.039951 -0.319000 0.049867 245 246 242
0.038286 -0.319000 0.051954 245 246 242
0.035881 -0.319000 0.053113 245 246 242
0.033210 -0.319000 0.053113 245 246 242
0.030805 -0.319000 0.051954 245 246 242
0.029140 -0.319000 0.049867 245 246 242
0.028545 -0.319000 0.047263 245 246 242
0.029140 -0.319000 0.044660 245 246 242
0.030805 -0.319000 0.042572 245 246 242
0.033210 -0.319000 0.041414 245 246 242
0.035881 -0.319000 0.041414 245 246 242
0.038286 -0.319000 0.042572 245 246 242
0.039951 -0.319000 0.044660 245 246 242
0.047576 -0.319000 0.042932 245 246 242
0.057576 -0.319000 0.042932 245 246 242
0.056585 -0.319000 0.047271 245 246 242
0.053811 -0.319000 0.050751 245 246 242
0.049801 -0.319000 0.052681 245 246 242
0.045351 -0.319000 0.052681 245 246 242
0.041341 -0.319000 0.050751 245 246 242
0.038566 -0.319000 0.047271 245 246 242
0.037576 -0.319000 0.042932 245 246 242
0.038566 -0.319000 0.038593 245 246 242
0.041341 -0.319000 0.035114 245 246 242
0.045351 -0.319000 0.033183 245 246 242
0.049801 -0.319000 0.033183 245 246 242
0.053811 -0.319000 0.035114 245 246 242
0.056585 -0.319000 0.038593 245 246 242
0.060606 -0.319000 0.034174 245 246 242
0.074606 -0.319000 0.034174 245 246 242
0.073220 -0.319000 0.040249 245 246 242
0.069335 -0.319000 0.045120 245 246 242
0.063721 -0.319000 0.047823 245 246 242
0.057491 -0.319000 0.047823 245 246 242
0.051877 -0.319000 0.045120 245 246 242
0.047992 -0.319000 0.040249 245 246 242
0.046606 -0.319000 0.034174 245 246 242
0.047992 -0.319000 0.028100 245 246 242
0.051877 -0.319000 0.023229 245 246 242
0.057491 -0.319000 0.020525 245 246 242
0.063721 -0.319000 0.020525 245 246 242
0.069335 -0.319000 0.023229 245 246 242
0.073220 -0.319000 0.028100 245 246 242
0.073636 -0.319000 0.021042 245 246 242
0.079636 -0.319000 0.021042 245 246 242
0.079042 -0.319000 0.023646 245 246 242
0.077377 -0.319000 0.025733 245 246 242
0.074971 -0.319000 0.026892 245 246 242
0.072301 -0.319000 0.026892 245 246 242
0.069895 -0.319000 0.025733 245 246 242
0.068231 -0.319000 0.023646 245 246 242
0.067636 -0.319000 0.021042 245 246 242
0.068231 -0.319000 0.018439 245 246 242
0.069895 -0.319000 0.016351 245 246 242
0.072301 -0.319000 0.015193 245 246 242
0.074971 -0.319000 0.015193 245 246 242
0.077377 -0.319000 0.016351 245 246 242
0.079042 -0.319000 0.018439 245 246 242
0.086667 -0.319000 0.003624 245 246 242
0.096667 -0.319000 0.003624 245 246 242
0.095676 -0.319000 0.007962 245 246 242
0.092902 -0.319000 0.011442 245 246 242
0.088892 -0.319000 0.013373 245 246 242
0.084441 -0.319000 0.013373 245 246 242
0.080432 -0.319000 0.011442 245 246 242
0.077657 -0.319000 0.007962 245 246 242
0.076667 -0.319000 0.003624 245 246 242
0.077657 -0.319000 -0.000715 245 246 242
0.080432 -0.319000 -0.004195 245 246 242
0.084441 -0.319000 -0.006126 245 246 242
0.088892 -0.319000 -0.006126 245 246 242
0.092902 -0.319000 -0.004195 245 246 242
0.095676 -0.319000 -0.000715 245 246 242
0.099697 -0.319000 -0.017963 245 246 242
0.113697 -0.319000 -0.017963 245 246 242
0.112311 -0.319000 -0.011888 245 246 242
0.108426 -0.319000 -0.007017 245 246 242
0.102812 -0.319000 -0.004314 245 246 242
0.096582 -0.319000 -0.004314 245 246 242
0.090968 -0.319000 -0.007017 245 246 242
0.087083 -0.319000 -0.011888 245 246 242
0.085697 -0.319000 -0.017963 245 246 242
0.087083 -0.319000 -0.024037 245 246 242
0.090968 -0.319000 -0.028908 245 246 242
0.096582 -0.319000 -0.031612 245 246 242
0.102812 -0.319000 -0.031612 245 246 242
0.108426 -0.319000 -0.028908 245 246 242
0.112311 -0.319000 -0.024037 245 246 242
0.112727 -0.319000 -0.043565 245 246 242
0.118727 -0.319000 -0.043565 245 246 242
0.118133 -0.319000 -0.040962 245 246 242
0.116468 -0.319000 -0.038874 245 246 242
0.114062 -0.319000 -0.037715 245 246 242
0.111392 -0.319000 -0.037715 245 246 242
0.108986 -0.319000 -0.038874 245 246 242
0.107321 -0.319000 -0.040962 245 246 242
0.106727 -0.319000 -0.043565 245 246 242
0.107321 -0.319000 -0.046168 245 246 242
0.108986 -0.319000 -0.048256 245 246 242
0.111392 -0.319000 -0.049414 245 246 242
0.114062 -0.319000 -0.049414 245 246 242
0.116468 -0.319000 -0.048256 245 246 242
0.118133 -0.319000 -0.046168 245 246 242
0.125758 -0.319000 -0.073000 245 246 242
0.135758 -0.319000 -0.073000 245 246 242
0.134767 -0.319000 -0.068662 245 246 242
0.131992 -0.319000 -0.065182 245 246 242
0.127983 -0.319000 -0.063251 245 246 242
0.123532 -0.319000 -0.063251 245 246 242
0.119523 -0.319000 -0.065182 245 246 242
0.116748 -0.319000 -0.068662 245 246 242
0.115758 -0.319000 -0.073000 245 246 242
0.116748 -0.319000 -0.077339 245 246 242
0.119523 -0.319000 -0.080819 245 246 242
0.123532 -0.319000 -0.082750 245 246 242
0.127983 -0.319000 -0.082750 245 246 242
0.131992 -0.319000 -0.080819 245 246 242
0.134767 -0.319000 -0.077339 245 246 242
0.138788 -0.319000 -0.106058 245 246 242
0.152788 -0.319000 -0.106058 245 246 242
0.151401 -0.319000 -0.099984 245 246 242
0.147517 -0.319000 -0.095112 245 246 242
0.141903 -0.319000 -0.092409 245 246 242
0.135673 -0.319000 -0.092409 245 246 242
0.130059 -0.319000 -0.095112 245 246 242
0.126174 -0.319000 -0.099984 245 246 242
0.124788 -0.319000 -0.106058 245 246 242
0.126174 -0.319000 -0.112132 245 246 242
0.130059 -0.319000 -0.117004 245 246 242
0.135673 -0.319000 -0.119707 245 246 242
0.141903 -0.319000 -0.119707 245 246 242
0.147517 -0.319000 -0.117004 245 246 242
0.151401 -0.319000 -0.112132 245 246 242
0.151818 -0.319000 -0.142498 245 246 242
0.157818 -0.319000 -0.142498 245 246 242
0.157224 -0.319000 -0.139895 245 246 242
0.155559 -0.319000 -0.137807 245 246 242
0.153153 -0.319000 -0.136648 245 246 242
0.150483 -0.319000 -0.136648 245 246 242
0.148077 -0.319000 -0.137807 245 246 242
0.146412 -0.319000 -0.139895 245 246 242
0.145818 -0.319000 -0.142498 245 246 242
0.146412 -0.319000 -0.145101 245 246 242
0.148077 -0.319000 -0.147189 245 246 242
0.150483 -0.319000 -0.148347 245 246 242
0.153153 -0.319000 -0.148347 245 246 242
0.155559 -0.319000 -0.147189 245 246 242
0.157224 -0.319000 -0.145101 245 246 242
0.164848 -0.319000 -0.182055 245 246 242
0.174848 -0.319000 -0.182055 245 246 242
0.173858 -0.319000 -0.177716 245 246 242
0.171083 -0.319000 -0.174236 245 246 242
0.167074 -0.319000 -0.172305 245 246 242
0.162623 -0.319000 -0.172305 245 246 242
0.158614 -0.319000 -0.174236 245 246 242
0.155839 -0.319000 -0.177716 245 246 242
0.154848 -0.319000 -0.182055 245 246 242
0.155839 -0.319000 -0.186394 245 246 242
0.158614 -0.319000 -0.189873 245 246 242
0.162623 -0.319000 -0.191804 245 246 242
0.167074 -0.319000 -0.191804 245 246 242
0.171083 -0.319000 -0.189873 245 246 242
0.173858 -0.319000 -0.186394 245 246 242
0.177879 -0.319000 -0.224439 245 246 242
0.191879 -0.319000 -0.224439 245 246 242
0.190492 -0.319000 -0.218365 245 246 242
0.186608 -0.319000 -0.213494 245 246 242
0.180994 -0.319000 -0.210790 245 246 242
0.174763 -0.319000 -0.210790 245 246 242
0.169150 -0.319000 -0.213494 245 246 242
0.165265 -0.319000 -0.218365 245 246 242
0.163879 -0.319000 -0.224439 245 246 242
0.165265 -0.319000 -0.230514 245 246 242
0.169150 -0.319000 -0.235385 245 246 242
0.174763 -0.319000 -0.238088 245 246 242
0.180994 -0.319000 -0.238088 245 246 242
0.186608 -0.319000 -0.235385 245 246 242
0.190492 -0.319000 -0.230514 245 246 242
0.190909 -0.319000 -0.269340 245 246 242
0.196909 -0.319000 -0.269340 245 246 242
0.196315 -0.319000 -0.266737 245 246 242
0.194650 -0.319000 -0.264649 245 246 242
0.192244 -0.319000 -0.263491 245 246 242
0.189574 -0.319000 -0.263491 245 246 242
0.187168 -0.319000 -0.264649 245 246 242
0.185503 -0.319000 -0.266737 245 246 242
0.184909 -0.319000 -0.269340 245 246 242
0.185503 -0.319000 -0.271944 245 246 242
0.187168 -0.319000 -0.274031 245 246 242
0.189574 -0.319000 -0.275190 245 246 242
0.192244 -0.319000 -0.275190 245 246 242
0.194650 -0.319000 -0.274031 245 246 242
0.196315 -0.319000 -0.271944 245 246 242
0.203939 -0.319000 -0.316428 245 246 242
0.213939 -0.319000 -0.316428 245 246 242
0.212949 -0.319000 -0.312089 245 246 242
0.210174 -0.319000 -0.308610 245 246 242
0.206165 -0.319000 -0.306679 245 246 242
0.201714 -0.319000 -0.306679 245 246 242
0.197704 -0.319000 -0.308610 245 246 242
0.194930 -0.319000 -0.312089 245 246 242
0.193939 -0.319000 -0.316428 245 246 242
0.194930 -0.319000 -0.320767 245 246 242
0.197704 -0.319000 -0.324246 245 246 242
0.201714 -0.319000 -0.326177 245 246 242
0.206165 -0.319000 -0.326177 245 246 242
0.210174 -0.319000 -0.324246 245 246 242
0.212949 -0.319000 -0.320767 245 246 242
0.216970 -0.319000 -0.365355 245 246 242
0.230970 -0.319000 -0.365355 245 246 242
0.229583 -0.319000 -0.359280 245 246 242
0.225699 -0.319000 -0.354409 245 246 242
0.220085 -0.319000 -0.351706 245 246 242
0.213854 -0.319000 -0.351706 245 246 242
0.208241 -0.319000 -0.354409 245 246 242
0.204356 -0.319000 -0.359280 245 246 242
0.202970 -0.319000 -0.365355 245 246 242
0.204356 -0.319000 -0.371429 245 246 242
0.208241 -0.319000 -0.376300 245 246 242
0.213854 -0.319000 -0.379004 245 246 242
0.220085 -0.319000 -0.379004 245 246 242
0.225699 -0.319000 -0.376300 245 246 242
0.229583 -0.319000 -0.371429 245 246 242
0.230000 -0.319000 -0.415760 245 246 242
0.236000 -0.319000 -0.415760 245 246 242
0.235406 -0.319000 -0.413157 245 246 242
0.233741 -0.319000 -0.411069 245 246 242
0.231335 -0.319000 -0.409910 245 246 242
0.228665 -0.319000 -0.409910 245 246 242
0.226259 -0.319000 -0.411069 245 246 242
0.224594 -0.319000 -0.413157 245 246 242
0.224000 -0.319000 -0.415760 245 246 242
0.224594 -0.319000 -0.418363 245 246 242
0.226259 -0.319000 -0.420451 245 246 242
0.228665 -0.319000 -0.421609 245 246 242
0.231335 -0.319000 -0.421609 245 246 242
0.233741 -0.319000 -0.420451 245 246 242
0.235406 -0.319000 -0.418363 245 246 242
0.000000 -0.321000 -0.550000 245 246 242
0.085000 -0.321000 -0.544500 245 246 242
0.084769 -0.321000 -0.542159 245 246 242
0.084087 -0.321000 -0.539908 245 246 242
0.082978 -0.321000 -0.537833 245 246 242
0.081485 -0.321000 -0.536015 245 246 242
0.079667 -0.321000 -0.534522 245 246 242
0.077592 -0.321000 -0.533413 245 246 242
0.075341 -0.321000 -0.532731 245 246 242
0.073000 -0.321000 -0.532500 245 246 242
-0.073000 -0.321000 -0.532500 245 246 242
-0.075341 -0.321000 -0.532731 245 246 242
-0.077592 -0.321000 -0.533413 245 246 242
-0.079667 -0.321000 -0.534522 245 246 242
-0.081485 -0.321000 -0.536015 245 246 242
-0.082978 -0.321000 -0.537833 245 246 242
-0.084087 -0.321000 -0.539908 245 246 242
-0.084769 -0.321000 -0.542159 245 246 242
-0.085000 -0.321000 -0.544500 245 246 242
-0.085000 -0.321000 -0.555500 245 246 242
-0.084769 -0.321000 -0.557841 245 246 242
-0.084087 -0.321000 -0.560092 245 246 242
-0.082978 -0.321000 -0.562167 245 246 242
-0.081485 -0.321000 -0.563985 245 246 242
-0.079667 -0.321000 -0.565478 245 246 242
-0.077592 -0.321000 -0.566587 245 246 242
-0.075341 -0.321000 -0.567269 245 246 242
-0.073000 -0.321000 -0.567500 245 246 242
0.073000 -0.321000 -0.567500 245 246 242
0.075341 -0.321000 -0.567269 245 246 242
0.077592 -0.321000 -0.566587 245 246 242
0.079667 -0.321000 -0.565478 245 246 242
0.081485 -0.321000 -0.563985 245 246 242
0.082978 -0.321000 -0.562167 245 246 242
0.084087 -0.321000 -0.560092 245 246 242
0.084769 -0.321000 -0.557841 245 246 242
0.085000 -0.321000 -0.555500 245 246 242
0.000000 -0.321000 -0.660000 245 246 242
0.050000 -0.321000 -0.651500 245 246 242
0.049731 -0.321000 -0.648769 245 246 242
0.048934 -0.321000 -0.646142 245 246 242
0.047641 -0.321000 -0.643722 245 246 242
0.045899 -0.321000 -0.641601 245 246 242
0.043778 -0.321000 -0.639859 245 246 242
0.041358 -0.321000 -0.638566 245 246 242
0.038731 -0.321000 -0.637769 245 246 242
0.036000 -0.321000 -0.637500 245 246 242
-0.036000 -0.321000 -0.637500 245 246 242
-0.038731 -0.321000 -0.637769 245 246 242
-0.041358 -0.321000 -0.638566 245 246 242
-0.043778 -0.321000 -0.639859 245 246 242
-0.045899 -0.321000 -0.641601 245 246 242
-0.047641 -0.321000 -0.643722 245 246 242
-0.048934 -0.321000 -0.646142 245 246 242
-0.049731 -0.321000 -0.648769 245 246 242
-0.050000 -0.321000 -0.651500 245 246 242
-0.050000 -0.321000 -0.668500 245 246 242
-0.049731 -0.321000 -0.671231 245 246 242
-0.048934 -0.321000 -0.673858 245 246 242
-0.047641 -0.321000 -0.676278 245 246 242
-0.045899 -0.321000 -0.678399 245 246 242
-0.043778 -0.321000 -0.680141 245 246 242
-0.041358 -0.321000 -0.681434 245 246 242
-0.038731 -0.321000 -0.682231 245 246 242
-0.036000 -0.321000 -0.682500 245 246 242
0.036000 -0.321000 -0.682500 245 246 242
0.038731 -0.321000 -0.682231 245 246 242
0.041358 -0.321000 -0.681434 245 246 242
0.043778 -0.321000 -0.680141 245 246 242
0.045899 -0.321000 -0.678399 245 246 242
0.047641 -0.321000 -0.676278 245 246 242
0.048934 -0.321000 -0.673858 245 246 242
0.049731 -0.321000 -0.671231 245 246 242
0.050000 -0.321000 -0.668500 245 246 242
0.000000 -0.321000 -0.760000 182 215 20
0.090000 -0.321000 -0.750000 182 215 20
0.089808 -0.321000 -0.748049 182 215 20
0.089239 -0.321000 -0.746173 182 215 20
0.088315 -0.321000 -0.744444 182 215 20
0.087071 -0.321000 -0.742929 182 215 20
0.085556 -0.321000 -0.741685 182 215 20
0.083827 -0.321000 -0.740761 182 215 20
0.081951 -0.321000 -0.740192 182 215 20
0.080000 -0.321000 -0.740000 182 215 20
-0.080000 -0.321000 -0.740000 182 215 20
-0.081951 -0.321000 -0.740192 182 215 20
-0.083827 -0.321000 -0.740761 182 215 20
-0.085556 -0.321000 -0.741685 182 215 20
-0.087071 -0.321000 -0.742929 182 215 20
-0.088315 -0.321000 -0.744444 182 215 20
-0.089239 -0.321000 -0.746173 182 215 20
-0.089808 -0.321000 -0.748049 182 215 20
-0.090000 -0.321000 -0.750000 182 215 20
-0.090000 -0.321000 -0.770000 182 215 20
-0.089808 -0.321000 -0.771951 182 215 20
-0.089239 -0.321000 -0.773827 182 215 20
-0.088315 -0.321000 -0.775556 182 215 20
-0.087071 -0.321000 -0.777071 182 215 20
-0.085556 -0.321000 -0.778315 182 215 20
-0.083827 -0.321000 -0.779239 182 215 20
-0.081951 -0.321000 -0.779808 182 215 20
-0.080000 -0.321000 -0.780000 182 215 20
0.080000 -0.321000 -0.780000 182 215 20
0.081951 -0.321000 -0.779808 182 215 20
0.083827 -0.321000 -0.779239 182 215 20
0.085556 -0.321000 -0.778315 182 215 20
0.087071 -0.321000 -0.777071 182 215 20
0.088315 -0.321000 -0.775556 182 215 20
0.089239 -0.321000 -0.773827 182 215 20
0.089808 -0.321000 -0.771951 182 215 20
0.090000 -0.321000 -0.770000 182 215 20
0.305000 -0.025000 -0.100000 76 77 78
0.345000 -0.025000 -0.100000 76 77 78
0.345000 0.025000 -0.100000 76 77 78
0.305000 0.025000 -0.100000 76 77 78
0.305000 -0.025000 0.080000 76 77 78
0.345000 -0.025000 0.080000 76 77 78
0.345000 0.025000 0.080000 76 77 78
0.305000 0.025000 0.080000 76 77 78
4 0 1 97 96
4 1 2 98 97
4 2 3 99 98
4 3 4 100 99
4 4 5 101 100
4 5 6 102 101
4 6 7 103 102
4 7 8 104 103
4 8 9 105 104
4 9 10 106 105
4 10 11 107 106
4 11 12 108 107
4 12 13 109 108
4 13 14 110 109
4 14 15 111 110
4 15 16 112 111
4 16 17 113 112
4 17 18 114 113
4 18 19 115 114
4 19 20 116 115
4 20 21 117 116
4 21 22 118 117
4 22 23 119 118
4 23 24 120 119
4 24 25 121 120
4 25 26 122 121
4 26 27 123 122
4 27 28 124 123
4 28 29 125 124
4 29 30 126 125
4 30 31 127 126
4 31 32 128 127
4 32 33 129 128
4 33 34 130 129
4 34 35 131 130
4 35 36 132 131
4 36 37 133 132
4 37 38 134 133
4 38 39 135 134
4 39 40 136 135
4 40 41 137 136
4 41 42 138 137
4 42 43 139 138
4 43 44 140 139
4 44 45 141 140
4 45 46 142 141
4 46 47 143 142
4 47 48 144 143
4 48 49 145 144
4 49 50 146 145
4 50 51 147 146
4 51 52 148 147
4 52 53 149 148
4 53 54 150 149
4 54 55 151 150
4 55 56 152 151
4 56 57 153 152
4 57 58 154 153
4 58 59 155 154
4 59 60 156 155
4 60 61 157 156
4 61 62 158 157
4 62 63 159 158
4 63 64 160 159
4 64 65 161 160
4 65 66 162 161
4 66 67 163 162
4 67 68 164 163
4 68 69 165 164
4 69 70 166 165
4 70 71 167 166
4 71 72 168 167
4 72 73 169 168
4 73 74 170 169
4 74 75 171 170
4 75 76 172 171
4 76 77 173 172
4 77 78 174 173
4 78 79 175 174
4 79 80 176 175
4 80 81 177 176
4 81 82 178 177
4 82 83 179 178
4 83 84 180 179
4 84 85 181 180
4 85 86 182 181
4 86 87 183 182
4 87 88 184 183
4 88 89 185 184
4 89 90 186 185
4 90 91 187 186
4 91 92 188 187
4 92 93 189 188
4 93 94 190 189
4 94 95 191 190
4 95 0 96 191
3 192 1 0
3 192 2 1
3 192 3 2
3 192 4 3
3 192 5 4
3 192 6 5
3 192 7 6
3 192 8 7
3 192 9 8
3 192 10 9
3 192 11 10
3 192 12 11
3 192 13 12
3 192 14 13
3 192 15 14
3 192 16 15
3 192 17 16
3 192 18 17
3 192 19 18
3 192 20 19
3 192 21 20
3 192 22 21
3 192 23 22
3 192 24 23
3 192 25 24
3 192 26 25
3 192 27 26
3 192 28 27
3 192 29 28
3 192 30 29
3 192 31 30
3 192 32 31
3 192 33 32
3 192 34 33
3 192 35 34
3 192 36 35
3 192 37 36
3 192 38 37
3 192 39 38
3 192 40 39
3 192 41 40
3 192 42 41
3 192 43 42
3 192 44 43
3 192 45 44
3 192 46 45
3 192 47 46
3 192 48 47
3 192 49 48
3 192 50 49
3 192 51 50
3 192 52 51
3 192 53 52
3 192 54 53
3 192 55 54
3 192 56 55
3 192 57 56
3 192 58 57
3 192 59 58
3 192 60 59
3 192 61 60
3 192 62 61
3 192 63 62
3 192 64 63
3 192 65 64
3 192 66 65
3 192 67 66
3 192 68 67
3 192 69 68
3 192 70 69
3 192 71 70
3 192 72 71
3 192 73 72
3 192 74 73
3 192 75 74
3 192 76 75
3 192 77 76
3 192 78 77
3 192 79 78
3 192 80 79
3 192 81 80
3 192 82 81
3 192 83 82
3 192 84 83
3 192 85 84
3 192 86 85
3 192 87 86
3 192 88 87
3 192 89 88
3 192 90 89
3 192 91 90
3 192 92 91
3 192 93 92
3 192 94 93
3 192 95 94
3 192 0 95
3 193 96 97
3 193 97 98
3 193 98 99
3 193 99 100
3 193 100 101
3 193 101 102
3 193 102 103
3 193 103 104
3 193 104 105
3 193 105 106
3 193 106 107
3 193 107 108
3 193 108 109
3 193 109 110
3 193 110 111
3 193 111 112
3 193 112 113
3 193 113 114
3 193 114 115
3 193 115 116
3 193 116 117
3 193 117 118
3 193 118 119
3 193 119 120
3 193 120 121
3 193 121 122
3 193 122 123
3 193 123 124
3 193 124 125
3 193 125 126
3 193 126 127
3 193 127 128
3 193 128 129
3 193 129 130
3 193 130 131
3 193 131 132
3 193 132 133
3 193 133 134
3 193 134 135
3 193 135 136
3 193 136 137
3 193 137 138
3 193 138 139
3 193 139 140
3 193 140 141
3 193 141 142
3 193 142 143
3 193 143 144
3 193 144 145
3 193 145 146
3 193 146 147
3 193 147 148
3 193 148 149
3 193 149 150
3 193 150 151
3 193 151 152
3 193 152 153
3 193 153 154
3 193 154 155
3 193 155 156
3 193 156 157
3 193 157 158
3 193 158 159
3 193 159 160
3 193 160 161
3 193 161 162
3 193 162 163
3 193 163 164
3 193 164 165
3 193 165 166
3 193 166 167
3 193 167 168
3 193 168 169
3 193 169 170
3 193 170 171
3 193 171 172
3 193 172 173
3 193 173 174
3 193 174 175
3 193 175 176
3 193 176 177
3 193 177 178
3 193 178 179
3 193 179 180
3 193 180 181
3 193 181 182
3 193 182 183
3 193 183 184
3 193 184 185
3 193 185 186
3 193 186 187
3 193 187 188
3 193 188 189
3 193 189 190
3 193 190 191
3 193 191 96
4 194 195 291 290
4 195 196 292 291
4 196 197 293 292
4 197 198 294 293
4 198 199 295 294
4 199 200 296 295
4 200 201 297 296
4 201 202 298 297
4 202 203 299 298
4 203 204 300 299
4 204 205 301 300
4 205 206 302 301
4 206 207 303 302
4 207 208 304 303
4 208 209 305 304
4 209 210 306 305
4 210 211 307 306
4 211 212 308 307
4 212 213 309 308
4 213 214 310 309
4 214 215 311 310
4 215 216 312 311
4 216 217 313 312
4 217 218 314 313
4 218 219 315 314
4 219 220 316 315
4 220 221 317 316
4 221 222 318 317
4 222 223 319 318
4 223 224 320 319
4 224 225 321 320
4 225 226 322 321
4 226 227 323 322
4 227 228 324 323
4 228 229 325 324
4 229 230 326 325
4 230 231 327 326
4 231 232 328 327
4 232 233 329 328
4 233 234 330 329
4 234 235 331 330
4 235 236 332 331
4 236 237 333 332
4 237 238 334 333
4 238 239 335 334
4 239 240 336 335
4 240 241 337 336
4 241 242 338 337
4 242 243 339 338
4 243 244 340 339
4 244 245 341 340
4 245 246 342 341
4 246 247 343 342
4 247 248 344 343
4 248 249 345 344
4 249 250 346 345
4 250 251 347 346
4 251 252 348 347
4 252 253 349 348
4 253 254 350 349
4 254 255 351 350
4 255 256 352 351
4 256 257 353 352
4 257 258 354 353
4 258 259 355 354
4 259 260 356 355
4 260 261 357 356
4 261 262 358 357
4 262 263 359 358
4 263 264 360 359
4 264 265 361 360
4 265 266 362 361
4 266 267 363 362
4 267 268 364 363
4 268 269 365 364
4 269 270 366 365
4 270 271 367 366
4 271 272 368 367
4 272 273 369 368
4 273 274 370 369
4 274 275 371 370
4 275 276 372 371
4 276 277 373 372
4 277 278 374 373
4 278 279 375 374
4 279 280 376 375
4 280 281 377 376
4 281 282 378 377
4 282 283 379 378
4 283 284 380 379
4 284 285 381 380
4 285 286 382 381
4 286 287 383 382
4 287 288 384 383
4 288 289 385 384
4 289 194 290 385
3 386 195 194
3 386 196 195
3 386 197 196
3 386 198 197
3 386 199 198
3 386 200 199
3 386 201 200
3 386 202 201
3 386 203 202
3 386 204 203
3 386 205 204
3 386 206 205
3 386 207 206
3 386 208 207
3 386 209 208
3 386 210 209
3 386 211 210
3 386 212 211
3 386 213 212
3 386 214 213
3 386 215 214
3 386 216 215
3 386 217 216
3 386 218 217
3 386 219 218
3 386 220 219
3 386 221 220
3 386 222 221
3 386 223 222
3 386 224 223
3 386 225 224
3 386 226 225
3 386 227 226
3 386 228 227
3 386 229 228
3 386 230 229
3 386 231 230
3 386 232 231
3 386 233 232
3 386 234 233
3 386 235 234
3 386 236 235
3 386 237 236
3 386 238 237
3 386 239 238
3 386 240 239
3 386 241 240
3 386 242 241
3 386 243 242
3 386 244 243
3 386 245 244
3 386 246 245
3 386 247 246
3 386 248 247
3 386 249 248
3 386 250 249
3 386 251 250
3 386 252 251
3 386 253 252
3 386 254 253
3 386 255 254
3 386 256 255
3 386 257 256
3 386 258 257
3 386 259 258
3 386 260 259
3 386 261 260
3 386 262 261
3 386 263 262
3 386 264 263
3 386 265 264
3 386 266 265
3 386 267 266
3 386 268 267
3 386 269 268
3 386 270 269
3 386 271 270
3 386 272 271
3 386 273 272
3 386 274 273
3 386 275 274
3 386 276 275
3 386 277 276
3 386 278 277
3 386 279 278
3 386 280 279
3 386 281 280
3 386 282 281
3 386 283 282
3 386 284 283
3 386 285 284
3 386 286 285
3 386 287 286
3 386 288 287
3 386 289 288
3 386 194 289
3 387 290 291
3 387 291 292
3 387 292 293
3 387 293 294
3 387 294 295
3 387 295 296
3 387 296 297
3 387 297 298
3 387 298 299
3 387 299 300
3 387 300 301
3 387 301 302
3 387 302 303
3 387 303 304
3 387 304 305
3 387 305 306
3 387 306 307
3 387 307 308
3 387 308 309
3 387 309 310
3 387 310 311
3 387 311 312
3 387 312 313
3 387 313 314
3 387 314 315
3 387 315 316
3 387 316 317
3 387 317 318
3 387 318 319
3 387 319 320
3 387 320 321
3 387 321 322
3 387 322 323
3 387 323 324
3 387 324 325
3 387 325 326
3 387 326 327
3 387 327 328
3 387 328 329
3 387 329 330
3 387 330 331
3 387 331 332
3 387 332 333
3 387 333 334
3 387 334 335
3 387 335 336
3 387 336 337
3 387 337 338
3 387 338 339
3 387 339 340
3 387 340 341
3 387 341 342
3 387 342 343
3 387 343 344
3 387 344 345
3 387 345 346
3 387 346 347
3 387 347 348
3 387 348 349
3 387 349 350
3 387 350 351
3 387 351 352
3 387 352 353
3 387 353 354
3 387 354 355
3 387 355 356
3 387 356 357
3 387 357 358
3 387 358 359
3 387 359 360
3 387 360 361
3 387 361 362
3 387 362 363
3 387 363 364
3 387 364 365
3 387 365 366
3 387 366 367
3 387 367 368
3 387 368 369
3 387 369 370
3 387 370 371
3 387 371 372
3 387 372 373
3 387 373 374
3 387 374 375
3 387 375 376
3 387 376 377
3 387 377 378
3 387 378 379
3 387 379 380
3 387 380 381
3 387 381 382
3 387 382 383
3 387 383 384
3 387 384 385
3 387 385 290
4 388 389 485 484
4 389 390 486 485
4 390 391 487 486
4 391 392 488 487
4 392 393 489 488
4 393 394 490 489
4 394 395 491 490
4 395 396 492 491
4 396 397 493 492
4 397 398 494 493
4 398 399 495 494
4 399 400 496 495
4 400 401 497 496
4 401 402 498 497
4 402 403 499 498
4 403 404 500 499
4 404 405 501 500
4 405 406 502 501
4 406 407 503 502
4 407 408 504 503
4 408 409 505 504
4 409 410 506 505
4 410 411 507 506
4 411 412 508 507
4 412 413 509 508
4 413 414 510 509
4 414 415 511 510
4 415 416 512 511
4 416 417 513 512
4 417 418 514 513
4 418 419 515 514
4 419 420 516 515
4 420 421 517 516
4 421 422 518 517
4 422 423 519 518
4 423 424 520 519
4 424 425 521 520
4 425 426 522 521
4 426 427 523 522
4 427 428 524 523
4 428 429 525 524
4 429 430 526 525
4 430 431 527 526
4 431 432 528 527
4 432 433 529 528
4 433 434 530 529
4 434 435 531 530
4 435 436 532 531
4 436 437 533 532
4 437 438 534 533
4 438 439 535 534
4 439 440 536 535
4 440 441 537 536
4 441 442 538 537
4 442 443 539 538
4 443 444 540 539
4 444 445 541 540
4 445 446 542 541
4 446 447 543 542
4 447 448 544 543
4 448 449 545 544
4 449 450 546 545
4 450 451 547 546
4 451 452 548 547
4 452 453 549 548
4 453 454 550 549
4 454 455 551 550
4 455 456 552 551
4 456 457 553 552
4 457 458 554 553
4 458 459 555 554
4 459 460 556 555
4 460 461 557 556
4 461 462 558 557
4 462 463 559 558
4 463 464 560 559
4 464 465 561 560
4 465 466 562 561
4 466 467 563 562
4 467 468 564 563
4 468 469 565 564
4 469 470 566 565
4 470 471 567 566
4 471 472 568 567
4 472 473 569 568
4 473 474 570 569
4 474 475 571 570
4 475 476 572 571
4 476 477 573 572
4 477 478 574 573
4 478 479 575 574
4 479 480 576 575
4 480 481 577 576
4 481 482 578 577
4 482 483 579 578
4 483 388 484 579
3 580 389 388
3 580 390 389
3 580 391 390
3 580 392 391
3 580 393 392
3 580 394 393
3 580 395 394
3 580 396 395
3 580 397 396
3 580 398 397
3 580 399 398
3 580 400 399
3 580 401 400
3 580 402 401
3 580 403 402
3 580 404 403
3 580 405 404
3 580 406 405
3 580 407 406
3 580 408 407
3 580 409 408
3 580 410 409
3 580 411 410
3 580 412 411
3 580 413 412
3 580 414 413
3 580 415 414
3 580 416 415
3 580 417 416
3 580 418 417
3 580 419 418
3 580 420 419
3 580 421 420
3 580 422 421
3 580 423 422
3 580 424 423
3 580 425 424
3 580 426 425
3 580 427 426
3 580 428 427
3 580 429 428
3 580 430 429
3 580 431 430
3 580 432 431
3 580 433 432
3 580 434 433
3 580 435 434
3 580 436 435
3 580 437 436
3 580 438 437
3 580 439 438
3 580 440 439
3 580 441 440
3 580 442 441
3 580 443 442
3 580 444 443
3 580 445 444
3 580 446 445
3 580 447 446
3 580 448 447
3 580 449 448
3 580 450 449
3 580 451 450
3 580 452 451
3 580 453 452
3 580 454 453
3 580 455 454
3 580 456 455
3 580 457 456
3 580 458 457
3 580 459 458
3 580 460 459
3 580 461 460
3 580 462 461
3 580 463 462
3 580 464 463
3 580 465 464
3 580 466 465
3 580 467 466
3 580 468 467
3 580 469 468
3 580 470 469
3 580 471 470
3 580 472 471
3 580 473 472
3 580 474 473
3 580 475 474
3 580 476 475
3 580 477 476
3 580 478 477
3 580 479 478
3 580 480 479
3 580 481 480
3 580 482 481
3 580 483 482
3 580 388 483
3 581 484 485
3 581 485 486
3 581 486 487
3 581 487 488
3 581 488 489
3 581 489 490
3 581 490 491
3 581 491 492
3 581 492 493
3 581 493 494
3 581 494 495
3 581 495 496
3 581 496 497
3 581 497 498
3 581 498 499
3 581 499 500
3 581 500 501
3 581 501 502
3 581 502 503
3 581 503 504
3 581 504 505
3 581 505 506
3 581 506 507
3 581 507 508
3 581 508 509
3 581 509 510
3 581 510 511
3 581 511 512
3 581 512 513
3 581 513 514
3 581 514 515
3 581 515 516
3 581 516 517
3 581 517 518
3 581 518 519
3 581 519 520
3 581 520 521
3 581 521 522
3 581 522 523
3 581 523 524
3 581 524 525
3 581 525 526
3 581 526 527
3 581 527 528
3 581 528 529
3 581 529 530
3 581 530 531
3 581 531 532
3 581 532 533
3 581 533 534
3 581 534 535
3 581 535 536
3 581 536 537
3 581 537 538
3 581 538 539
3 581 539 540
3 581 540 541
3 581 541 542
3 581 542 543
3 581 543 544
3 581 544 545
3 581 545 546
3 581 546 547
3 581 547 548
3 581 548 549
3 581 549 550
3 581 550 551
3 581 551 552
3 581 552 553
3 581 553 554
3 581 554 555
3 581 555 556
3 581 556 557
3 581 557 558
3 581 558 559
3 581 559 560
3 581 560 561
3 581 561 562
3 581 562 563
3 581 563 564
3 581 564 565
3 581 565 566
3 581 566 567
3 581 567 568
3 581 568 569
3 581 569 570
3 581 570 571
3 581 571 572
3 581 572 573
3 581 573 574
3 581 574 575
3 581 575 576
3 581 576 577
3 581 577 578
3 581 578 579
3 581 579 484
4 582 583 679 678
4 583 584 680 679
4 584 585 681 680
4 585 586 682 681
4 586 587 683 682
4 587 588 684 683
4 588 589 685 684
4 589 590 686 685
4 590 591 687 686
4 591 592 688 687
4 592 593 689 688
4 593 594 690 689
4 594 595 691 690
4 595 596 692 691
4 596 597 693 692
4 597 598 694 693
4 598 599 695 694
4 599 600 696 695
4 600 601 697 696
4 601 602 698 697
4 602 603 699 698
4 603 604 700 699
4 604 605 701 700
4 605 606 702 701
4 606 607 703 702
4 607 608 704 703
4 608 609 705 704
4 609 610 706 705
4 610 611 707 706
4 611 612 708 707
4 612 613 709 708
4 613 614 710 709
4 614 615 711 710
4 615 616 712 711
4 616 617 713 712
4 617 618 714 713
4 618 619 715 714
4 619 620 716 715
4 620 621 717 716
4 621 622 718 717
4 622 623 719 718
4 623 624 720 719
4 624 625 721 720
4 625 626 722 721
4 626 627 723 722
4 627 628 724 723
4 628 629 725 724
4 629 630 726 725
4 630 631 727 726
4 631 632 728 727
4 632 633 729 728
4 633 634 730 729
4 634 635 731 730
4 635 636 732 731
4 636 637 733 732
4 637 638 734 733
4 638 639 735 734
4 639 640 736 735
4 640 641 737 736
4 641 642 738 737
4 642 643 739 738
4 643 644 740 739
4 644 645 741 740
4 645 646 742 741
4 646 647 743 742
4 647 648 744 743
4 648 649 745 744
4 649 650 746 745
4 650 651 747 746
4 651 652 748 747
4 652 653 749 748
4 653 654 750 749
4 654 655 751 750
4 655 656 752 751
4 656 657 753 752
4 657 658 754 753
4 658 659 755 754
4 659 660 756 755
4 660 661 757 756
4 661 662 758 757
4 662 663 759 758
4 663 664 760 759
4 664 665 761 760
4 665 666 762 761
4 666 667 763 762
4 667 668 764 763
4 668 669 765 764
4 669 670 766 765
4 670 671 767 766
4 671 672 768 767
4 672 673 769 768
4 673 674 770 769
4 674 675 771 770
4 675 676 772 771
4 676 677 773 772
4 677 582 678 773
3 774 583 582
3 774 584 583
3 774 585 584
3 774 586 585
3 774 587 586
3 774 588 587
3 774 589 588
3 774 590 589
3 774 591 590
3 774 592 591
3 774 593 592
3 774 594 593
3 774 595 594
3 774 596 595
3 774 597 596
3 774 598 597
3 774 599 598
3 774 600 599
3 774 601 600
3 774 602 601
3 774 603 602
3 774 604 603
3 774 605 604
3 774 606 605
3 774 607 606
3 774 608 607
3 774 609 608
3 774 610 609
3 774 611 610
3 774 612 611
3 774 613 612
3 774 614 613
3 774 615 614
3 774 616 615
3 774 617 616
3 774 618 617
3 774 619 618
3 774 620 619
3 774 621 620
3 774 622 621
3 774 623 622
3 774 624 623
3 774 625 624
3 774 626 625
3 774 627 626
3 774 628 627
3 774 629 628
3 774 630 629
3 774 631 630
3 774 632 631
3 774 633 632
3 774 634 633
3 774 635 634
3 774 636 635
3 774 637 636
3 774 638 637
3 774 639 638
3 774 640 639
3 774 641 640
3 774 642 641
3 774 643 642
3 774 644 643
3 774 645 644
3 774 646 645
3 774 647 646
3 774 648 647
3 774 649 648
3 774 650 649
3 774 651 650
3 774 652 651
3 774 653 652
3 774 654 653
3 774 655 654
3 774 656 655
3 774 657 656
3 774 658 657
3 774 659 658
3 774 660 659
3 774 661 660
3 774 662 661
3 774 663 662
3 774 664 663
3 774 665 664
3 774 666 665
3 774 667 666
3 774 668 667
3 774 669 668
3 774 670 669
3 774 671 670
3 774 672 671
3 774 673 672
3 774 674 673
3 774 675 674
3 774 676 675
3 774 677 676
3 774 582 677
3 775 678 679
3 775 679 680
3 775 680 681
3 775 681 682
3 775 682 683
3 775 683 684
3 775 684 685
3 775 685 686
3 775 686 687
3 775 687 688
3 775 688 689
3 775 689 690
3 775 690 691
3 775 691 692
3 775 692 693
3 775 693 694
3 775 694 695
3 775 695 696
3 775 696 697
3 775 697 698
3 775 698 699
3 775 699 700
3 775 700 701
3 775 701 702
3 775 702 703
3 775 703 704
3 775 704 705
3 775 705 706
3 775 706 707
3 775 707 708
3 775 708 709
3 775 709 710
3 775 710 711
3 775 711 712
3 775 712 713
3 775 713 714
3 775 714 715
3 775 715 716
3 775 716 717
3 775 717 718
3 775 718 719
3 775 719 720
3 775 720 721
3 775 721 722
3 775 722 723
3 775 723 724
3 775 724 725
3 775 725 726
3 775 726 727
3 775 727 728
3 775 728 729
3 775 729 730
3 775 730 731
3 775 731 732
3 775 732 733
3 775 733 734
3 775 734 735
3 775 735 736
3 775 736 737
3 775 737 738
3 775 738 739
3 775 739 740
3 775 740 741
3 775 741 742
3 775 742 743
3 775 743 744
3 775 744 745
3 775 745 746
3 775 746 747
3 775 747 748
3 775 748 749
3 775 749 750
3 775 750 751
3 775 751 752
3 775 752 753
3 775 753 754
3 775 754 755
3 775 755 756
3 775 756 757
3 775 757 758
3 775 758 759
3 775 759 760
3 775 760 761
3 775 761 762
3 775 762 763
3 775 763 764
3 775 764 765
3 775 765 766
3 775 766 767
3 775 767 768
3 775 768 769
3 775 769 770
3 775 770 771
3 775 771 772
3 775 772 773
3 775 773 678
3 776 778 777
3 776 779 778
3 776 780 779
3 776 781 780
3 776 782 781
3 776 783 782
3 776 784 783
3 776 785 784
3 776 786 785
3 776 787 786
3 776 788 787
3 776 789 788
3 776 790 789
3 776 791 790
3 776 792 791
3 776 793 792
3 776 794 793
3 776 795 794
3 776 796 795
3 776 797 796
3 776 798 797
3 776 799 798
3 776 800 799
3 776 801 800
3 776 802 801
3 776 803 802
3 776 804 803
3 776 805 804
3 776 806 805
3 776 807 806
3 776 808 807
3 776 809 808
3 776 810 809
3 776 811 810
3 776 812 811
3 776 777 812
3 813 815 814
3 813 816 815
3 813 817 816
3 813 818 817
3 813 819 818
3 813 820 819
3 813 821 820
3 813 822 821
3 813 823 822
3 813 824 823
3 813 825 824
3 813 826 825
3 813 827 826
3 813 828 827
3 813 829 828
3 813 830 829
3 813 831 830
3 813 832 831
3 813 833 832
3 813 834 833
3 813 835 834
3 813 836 835
3 813 837 836
3 813 838 837
3 813 839 838
3 813 840 839
3 813 841 840
3 813 842 841
3 813 843 842
3 813 844 843
3 813 845 844
3 813 846 845
3 813 847 846
3 813 848 847
3 813 849 848
3 813 850 849
3 813 851 850
3 813 852 851
3 813 853 852
3 813 814 853
3 854 856 855
3 854 857 856
3 854 858 857
3 854 859 858
3 854 860 859
3 854 861 860
3 854 862 861
3 854 863 862
3 854 864 863
3 854 865 864
3 854 866 865
3 854 867 866
3 854 868 867
3 854 869 868
3 854 870 869
3 854 871 870
3 854 872 871
3 854 873 872
3 854 874 873
3 854 875 874
3 854 876 875
3 854 877 876
3 854 878 877
3 854 879 878
3 854 880 879
3 854 881 880
3 854 882 881
3 854 883 882
3 854 884 883
3 854 885 884
3 854 886 885
3 854 887 886
3 854 888 887
3 854 889 888
3 854 890 889
3 854 891 890
3 854 892 891
3 854 893 892
3 854 894 893
3 854 855 894
3 895 897 896
3 895 898 897
3 895 899 898
3 895 900 899
3 895 901 900
3 895 902 901
3 895 903 902
3 895 904 903
3 895 905 904
3 895 906 905
3 895 907 906
3 895 908 907
3 895 909 908
3 895 910 909
3 895 911 910
3 895 912 911
3 895 913 912
3 895 914 913
3 895 915 914
3 895 916 915
3 895 917 916
3 895 918 917
3 895 919 918
3 895 920 919
3 895 921 920
3 895 922 921
3 895 923 922
3 895 924 923
3 895 925 924
3 895 926 925
3 895 927 926
3 895 928 927
3 895 929 928
3 895 930 929
3 895 931 930
3 895 896 931
3 932 934 933
3 932 935 934
3 932 936 935
3 932 937 936
3 932 938 937
3 932 939 938
3 932 940 939
3 932 941 940
3 932 942 941
3 932 943 942
3 932 944 943
3 932 945 944
3 932 946 945
3 932 947 946
3 932 948 947
3 932 949 948
3 932 950 949
3 932 951 950
3 932 952 951
3 932 953 952
3 932 954 953
3 932 955 954
3 932 956 955
3 932 957 956
3 932 958 957
3 932 959 958
3 932 960 959
3 932 961 960
3 932 962 961
3 932 963 962
3 932 964 963
3 932 965 964
3 932 966 965
3 932 967 966
3 932 968 967
3 932 933 968
3 969 971 970
3 969 972 971
3 969 973 972
3 969 974 973
3 969 975 974
3 969 976 975
3 969 977 976
3 969 978 977
3 969 979 978
3 969 980 979
3 969 981 980
3 969 982 981
3 969 983 982
3 969 984 983
3 969 985 984
3 969 986 985
3 969 987 986
3 969 988 987
3 969 989 988
3 969 990 989
3 969 991 990
3 969 992 991
3 969 993 992
3 969 994 993
3 969 995 994
3 969 996 995
3 969 997 996
3 969 998 997
3 969 999 998
3 969 1000 999
3 969 1001 1000
3 969 1002 1001
3 969 1003 1002
3 969 1004 1003
3 969 1005 1004
3 969 970 1005
3 1016 1007 1006
3 1016 1008 1007
3 1016 1009 1008
3 1016 1010 1009
3 1016 1011 1010
3 1016 1012 1011
3 1016 1013 1012
3 1016 1014 1013
3 1016 1015 1014
3 1016 1006 1015
3 1027 1018 1017
3 1027 1019 1018
3 1027 1020 1019
3 1027 1021 1020
3 1027 1022 1021
3 1027 1023 1022
3 1027 1024 1023
3 1027 1025 1024
3 1027 1026 1025
3 1027 1017 1026
3 1038 1029 1028
3 1038 1030 1029
3 1038 1031 1030
3 1038 1032 1031
3 1038 1033 1032
3 1038 1034 1033
3 1038 1035 1034
3 1038 1036 1035
3 1038 1037 1036
3 1038 1028 1037
3 1049 1040 1039
3 1049 1041 1040
3 1049 1042 1041
3 1049 1043 1042
3 1049 1044 1043
3 1049 1045 1044
3 1049 1046 1045
3 1049 1047 1046
3 1049 1048 1047
3 1049 1039 1048
3 1060 1051 1050
3 1060 1052 1051
3 1060 1053 1052
3 1060 1054 1053
3 1060 1055 1054
3 1060 1056 1055
3 1060 1057 1056
3 1060 1058 1057
3 1060 1059 1058
3 1060 1050 1059
3 1071 1062 1061
3 1071 1063 1062
3 1071 1064 1063
3 1071 1065 1064
3 1071 1066 1065
3 1071 1067 1066
3 1071 1068 1067
3 1071 1069 1068
3 1071 1070 1069
3 1071 1061 1070
3 1082 1073 1072
3 1082 1074 1073
3 1082 1075 1074
3 1082 1076 1075
3 1082 1077 1076
3 1082 1078 1077
3 1082 1079 1078
3 1082 1080 1079
3 1082 1081 1080
3 1082 1072 1081
3 1083 1085 1084
3 1083 1086 1085
3 1083 1087 1086
3 1083 1088 1087
3 1083 1089 1088
3 1083 1090 1089
3 1083 1091 1090
3 1083 1092 1091
3 1083 1093 1092
3 1083 1094 1093
3 1083 1095 1094
3 1083 1096 1095
3 1083 1097 1096
3 1083 1084 1097
3 1098 1100 1099
3 1098 1101 1100
3 1098 1102 1101
3 1098 1103 1102
3 1098 1104 1103
3 1098 1105 1104
3 1098 1106 1105
3 1098 1107 1106
3 1098 1108 1107
3 1098 1109 1108
3 1098 1110 1109
3 1098 1111 1110
3 1098 1112 1111
3 1098 1099 1112
3 1113 1115 1114
3 1113 1116 1115
3 1113 1117 1116
3 1113 1118 1117
3 1113 1119 1118
3 1113 1120 1119
3 1113 1121 1120
3 1113 1122 1121
3 1113 1123 1122
3 1113 1124 1123
3 1113 1125 1124
3 1113 1126 1125
3 1113 1127 1126
3 1113 1114 1127
3 1128 1130 1129
3 1128 1131 1130
3 1128 1132 1131
3 1128 1133 1132
3 1128 1134 1133
3 1128 1135 1134
3 1128 1136 1135
3 1128 1137 1136
3 1128 1138 1137
3 1128 1139 1138
3 1128 1140 1139
3 1128 1141 1140
3 1128 1142 1141
3 1128 1129 1142
3 1143 1145 1144
3 1143 1146 1145
3 1143 1147 1146
3 1143 1148 1147
3 1143 1149 1148
3 1143 1150 1149
3 1143 1151 1150
3 1143 1152 1151
3 1143 1153 1152
3 1143 1154 1153
3 1143 1155 1154
3 1143 1156 1155
3 1143 1157 1156
3 1143 1144 1157
3 1158 1160 1159
3 1158 1161 1160
3 1158 1162 1161
3 1158 1163 1162
3 1158 1164 1163
3 1158 1165 1164
3 1158 1166 1165
3 1158 1167 1166
3 1158 1168 1167
3 1158 1169 1168
3 1158 1170 1169
3 1158 1171 1170
3 1158 1172 1171
3 1158 1159 1172
3 1173 1175 1174
3 1173 1176 1175
3 1173 1177 1176
3 1173 1178 1177
3 1173 1179 1178
3 1173 1180 1179
3 1173 1181 1180
3 1173 1182 1181
3 1173 1183 1182
3 1173 1184 1183
3 1173 1185 1184
3 1173 1186 1185
3 1173 1187 1186
3 1173 1174 1187
3 1188 1190 1189
3 1188 1191 1190
3 1188 1192 1191
3 1188 1193 1192
3 1188 1194 1193
3 1188 1195 1194
3 1188 1196 1195
3 1188 1197 1196
3 1188 1198 1197
3 1188 1199 1198
3 1188 1200 1199
3 1188 1201 1200
3 1188 1202 1201
3 1188 1189 1202
3 1203 1205 1204
3 1203 1206 1205
3 1203 1207 1206
3 1203 1208 1207
3 1203 1209 1208
3 1203 1210 1209
3 1203 1211 1210
3 1203 1212 1211
3 1203 1213 1212
3 1203 1214 1213
3 1203 1215 1214
3 1203 1216 1215
3 1203 1217 1216
3 1203 1204 1217
3 1218 1220 1219
3 1218 1221 1220
3 1218 1222 1221
3 1218 1223 1222
3 1218 1224 1223
3 1218 1225 1224
3 1218 1226 1225
3 1218 1227 1226
3 1218 1228 1227
3 1218 1229 1228
3 1218 1230 1229
3 1218 1231 1230
3 1218 1232 1231
3 1218 1219 1232
3 1233 1235 1234
3 1233 1236 1235
3 1233 1237 1236
3 1233 1238 1237
3 1233 1239 1238
3 1233 1240 1239
3 1233 1241 1240
3 1233 1242 1241
3 1233 1243 1242
3 1233 1244 1243
3 1233 1245 1244
3 1233 1246 1245
3 1233 1247 1246
3 1233 1234 1247
3 1248 1250 1249
3 1248 1251 1250
3 1248 1252 1251
3 1248 1253 1252
3 1248 1254 1253
3 1248 1255 1254
3 1248 1256 1255
3 1248 1257 1256
3 1248 1258 1257
3 1248 1259 1258
3 1248 1260 1259
3 1248 1261 1260
3 1248 1262 1261
3 1248 1249 1262
3 1263 1265 1264
3 1263 1266 1265
3 1263 1267 1266
3 1263 1268 1267
3 1263 1269 1268
3 1263 1270 1269
3 1263 1271 1270
3 1263 1272 1271
3 1263 1273 1272
3 1263 1274 1273
3 1263 1275 1274
3 1263 1276 1275
3 1263 1277 1276
3 1263 1264 1277
3 1278 1280 1279
3 1278 1281 1280
3 1278 1282 1281
3 1278 1283 1282
3 1278 1284 1283
3 1278 1285 1284
3 1278 1286 1285
3 1278 1287 1286
3 1278 1288 1287
3 1278 1289 1288
3 1278 1290 1289
3 1278 1291 1290
3 1278 1292 1291
3 1278 1279 1292
3 1293 1295 1294
3 1293 1296 1295
3 1293 1297 1296
3 1293 1298 1297
3 1293 1299 1298
3 1293 1300 1299
3 1293 1301 1300
3 1293 1302 1301
3 1293 1303 1302
3 1293 1304 1303
3 1293 1305 1304
3 1293 1306 1305
3 1293 1307 1306
3 1293 1294 1307
3 1308 1310 1309
3 1308 1311 1310
3 1308 1312 1311
3 1308 1313 1312
3 1308 1314 1313
3 1308 1315 1314
3 1308 1316 1315
3 1308 1317 1316
3 1308 1318 1317
3 1308 1319 1318
3 1308 1320 1319
3 1308 1321 1320
3 1308 1322 1321
3 1308 1309 1322
3 1323 1325 1324
3 1323 1326 1325
3 1323 1327 1326
3 1323 1328 1327
3 1323 1329 1328
3 1323 1330 1329
3 1323 1331 1330
3 1323 1332 1331
3 1323 1333 1332
3 1323 1334 1333
3 1323 1335 1334
3 1323 1336 1335
3 1323 1337 1336
3 1323 1324 1337
3 1338 1340 1339
3 1338 1341 1340
3 1338 1342 1341
3 1338 1343 1342
3 1338 1344 1343
3 1338 1345 1344
3 1338 1346 1345
3 1338 1347 1346
3 1338 1348 1347
3 1338 1349 1348
3 1338 1350 1349
3 1338 1351 1350
3 1338 1352 1351
3 1338 1339 1352
3 1353 1355 1354
3 1353 1356 1355
3 1353 1357 1356
3 1353 1358 1357
3 1353 1359 1358
3 1353 1360 1359
3 1353 1361 1360
3 1353 1362 1361
3 1353 1363 1362
3 1353 1364 1363
3 1353 1365 1364
3 1353 1366 1365
3 1353 1367 1366
3 1353 1354 1367
3 1368 1370 1369
3 1368 1371 1370
3 1368 1372 1371
3 1368 1373 1372
3 1368 1374 1373
3 1368 1375 1374
3 1368 1376 1375
3 1368 1377 1376
3 1368 1378 1377
3 1368 1379 1378
3 1368 1380 1379
3 1368 1381 1380
3 1368 1382 1381
3 1368 1369 1382
3 1383 1385 1384
3 1383 1386 1385
3 1383 1387 1386
3 1383 1388 1387
3 1383 1389 1388
3 1383 1390 1389
3 1383 1391 1390
3 1383 1392 1391
3 1383 1393 1392
3 1383 1394 1393
3 1383 1395 1394
3 1383 1396 1395
3 1383 1397 1396
3 1383 1384 1397
3 1398 1400 1399
3 1398 1401 1400
3 1398 1402 1401
3 1398 1403 1402
3 1398 1404 1403
3 1398 1405 1404
3 1398 1406 1405
3 1398 1407 1406
3 1398 1408 1407
3 1398 1409 1408
3 1398 1410 1409
3 1398 1411 1410
3 1398 1412 1411
3 1398 1399 1412
3 1413 1415 1414
3 1413 1416 1415
3 1413 1417 1416
3 1413 1418 1417
3 1413 1419 1418
3 1413 1420 1419
3 1413 1421 1420
3 1413 1422 1421
3 1413 1423 1422
3 1413 1424 1423
3 1413 1425 1424
3 1413 1426 1425
3 1413 1427 1426
3 1413 1414 1427
3 1428 1430 1429
3 1428 1431 1430
3 1428 1432 1431
3 1428 1433 1432
3 1428 1434 1433
3 1428 1435 1434
3 1428 1436 1435
3 1428 1437 1436
3 1428 1438 1437
3 1428 1439 1438
3 1428 1440 1439
3 1428 1441 1440
3 1428 1442 1441
3 1428 1429 1442
3 1443 1445 1444
3 1443 1446 1445
3 1443 1447 1446
3 1443 1448 1447
3 1443 1449 1448
3 1443 1450 1449
3 1443 1451 1450
3 1443 1452 1451
3 1443 1453 1452
3 1443 1454 1453
3 1443 1455 1454
3 1443 1456 1455
3 1443 1457 1456
3 1443 1444 1457
3 1458 1460 1459
3 1458 1461 1460
3 1458 1462 1461
3 1458 1463 1462
3 1458 1464 1463
3 1458 1465 1464
3 1458 1466 1465
3 1458 1467 1466
3 1458 1468 1467
3 1458 1469 1468
3 1458 1470 1469
3 1458 1471 1470
3 1458 1472 1471
3 1458 1459 1472
3 1473 1475 1474
3 1473 1476 1475
3 1473 1477 1476
3 1473 1478 1477
3 1473 1479 1478
3 1473 1480 1479
3 1473 1481 1480
3 1473 1482 1481
3 1473 1483 1482
3 1473 1484 1483
3 1473 1485 1484
3 1473 1486 1485
3 1473 1487 1486
3 1473 1474 1487
3 1488 1490 1489
3 1488 1491 1490
3 1488 1492 1491
3 1488 1493 1492
3 1488 1494 1493
3 1488 1495 1494
3 1488 1496 1495
3 1488 1497 1496
3 1488 1498 1497
3 1488 1499 1498
3 1488 1500 1499
3 1488 1501 1500
3 1488 1502 1501
3 1488 1489 1502
3 1503 1505 1504
3 1503 1506 1505
3 1503 1507 1506
3 1503 1508 1507
3 1503 1509 1508
3 1503 1510 1509
3 1503 1511 1510
3 1503 1512 1511
3 1503 1513 1512
3 1503 1514 1513
3 1503 1515 1514
3 1503 1516 1515
3 1503 1517 1516
3 1503 1504 1517
3 1518 1520 1519
3 1518 1521 1520
3 1518 1522 1521
3 1518 1523 1522
3 1518 1524 1523
3 1518 1525 1524
3 1518 1526 1525
3 1518 1527 1526
3 1518 1528 1527
3 1518 1529 1528
3 1518 1530 1529
3 1518 1531 1530
3 1518 1532 1531
3 1518 1519 1532
3 1533 1535 1534
3 1533 1536 1535
3 1533 1537 1536
3 1533 1538 1537
3 1533 1539 1538
3 1533 1540 1539
3 1533 1541 1540
3 1533 1542 1541
3 1533 1543 1542
3 1533 1544 1543
3 1533 1545 1544
3 1533 1546 1545
3 1533 1547 1546
3 1533 1534 1547
3 1548 1550 1549
3 1548 1551 1550
3 1548 1552 1551
3 1548 1553 1552
3 1548 1554 1553
3 1548 1555 1554
3 1548 1556 1555
3 1548 1557 1556
3 1548 1558 1557
3 1548 1559 1558
3 1548 1560 1559
3 1548 1561 1560
3 1548 1562 1561
3 1548 1549 1562
3 1563 1565 1564
3 1563 1566 1565
3 1563 1567 1566
3 1563 1568 1567
3 1563 1569 1568
3 1563 1570 1569
3 1563 1571 1570
3 1563 1572 1571
3 1563 1573 1572
3 1563 1574 1573
3 1563 1575 1574
3 1563 1576 1575
3 1563 1577 1576
3 1563 1564 1577
3 1578 1580 1579
3 1578 1581 1580
3 1578 1582 1581
3 1578 1583 1582
3 1578 1584 1583
3 1578 1585 1584
3 1578 1586 1585
3 1578 1587 1586
3 1578 1588 1587
3 1578 1589 1588
3 1578 1590 1589
3 1578 1591 1590
3 1578 1592 1591
3 1578 1579 1592
3 1593 1595 1594
3 1593 1596 1595
3 1593 1597 1596
3 1593 1598 1597
3 1593 1599 1598
3 1593 1600 1599
3 1593 1601 1600
3 1593 1602 1601
3 1593 1603 1602
3 1593 1604 1603
3 1593 1605 1604
3 1593 1606 1605
3 1593 1607 1606
3 1593 1608 1607
3 1593 1609 1608
3 1593 1610 1609
3 1593 1611 1610
3 1593 1612 1611
3 1593 1613 1612
3 1593 1614 1613
3 1593 1615 1614
3 1593 1616 1615
3 1593 1617 1616
3 1593 1618 1617
3 1593 1619 1618
3 1593 1620 1619
3 1593 1621 1620
3 1593 1622 1621
3 1593 1623 1622
3 1593 1624 1623
3 1593 1625 1624
3 1593 1626 1625
3 1593 1627 1626
3 1593 1628 1627
3 1593 1629 1628
3 1593 1594 1629
3 1630 1632 1631
3 1630 1633 1632
3 1630 1634 1633
3 1630 1635 1634
3 1630 1636 1635
3 1630 1637 1636
3 1630 1638 1637
3 1630 1639 1638
3 1630 1640 1639
3 1630 1641 1640
3 1630 1642 1641
3 1630 1643 1642
3 1630 1644 1643
3 1630 1645 1644
3 1630 1646 1645
3 1630 1647 1646
3 1630 1648 1647
3 1630 1649 1648
3 1630 1650 1649
3 1630 1651 1650
3 1630 1652 1651
3 1630 1653 1652
3 1630 1654 1653
3 1630 1655 1654
3 1630 1656 1655
3 1630 1657 1656
3 1630 1658 1657
3 1630 1659 1658
3 1630 1660 1659
3 1630 1661 1660
3 1630 1662 1661
3 1630 1663 1662
3 1630 1664 1663
3 1630 1665 1664
3 1630 1666 1665
3 1630 1631 1666
3 1667 1669 1668
3 1667 1670 1669
3 1667 1671 1670
3 1667 1672 1671
3 1667 1673 1672
3 1667 1674 1673
3 1667 1675 1674
3 1667 1676 1675
3 1667 1677 1676
3 1667 1678 1677
3 1667 1679 1678
3 1667 1680 1679
3 1667 1681 1680
3 1667 1682 1681
3 1667 1683 1682
3 1667 1684 1683
3 1667 1685 1684
3 1667 1686 1685
3 1667 1687 1686
3 1667 1688 1687
3 1667 1689 1688
3 1667 1690 1689
3 1667 1691 1690
3 1667 1692 1691
3 1667 1693 1692
3 1667 1694 1693
3 1667 1695 1694
3 1667 1696 1695
3 1667 1697 1696
3 1667 1698 1697
3 1667 1699 1698
3 1667 1700 1699
3 1667 1701 1700
3 1667 1702 1701
3 1667 1703 1702
3 1667 1668 1703
4 1704 1705 1706 1707
4 1708 1711 1710 1709
4 1704 1708 1709 1705
4 1705 1709 1710 1706
4 1706 1710 1711 1707
4 1707 1711 1708 1704
