ply
format ascii 1.0
comment Object B enhanced smartphone mesh generated from prompt: a realistic 3D model of a slim modern smartphone, glossy black glass front screen, silver aluminum frame, rounded corners, back side has two large camera lenses and a small flash, centered product render, isolated on white background, high detail
element vertex 821
property float x
property float y
property float z
property uchar red
property uchar green
property uchar blue
element face 752
property list uchar int vertex_indices
end_header
0.000000 0.000000 0.060000 198 202 205
0.310000 0.505000 0.060000 198 202 205
0.309077 0.516733 0.060000 198 202 205
0.306329 0.528176 0.060000 198 202 205
0.301825 0.539049 0.060000 198 202 205
0.295676 0.549084 0.060000 198 202 205
0.288033 0.558033 0.060000 198 202 205
0.279084 0.565676 0.060000 198 202 205
0.269049 0.571825 0.060000 198 202 205
0.258176 0.576329 0.060000 198 202 205
0.246733 0.579077 0.060000 198 202 205
0.235000 0.580000 0.060000 198 202 205
-0.235000 0.580000 0.060000 198 202 205
-0.246733 0.579077 0.060000 198 202 205
-0.258176 0.576329 0.060000 198 202 205
-0.269049 0.571825 0.060000 198 202 205
-0.279084 0.565676 0.060000 198 202 205
-0.288033 0.558033 0.060000 198 202 205
-0.295676 0.549084 0.060000 198 202 205
-0.301825 0.539049 0.060000 198 202 205
-0.306329 0.528176 0.060000 198 202 205
-0.309077 0.516733 0.060000 198 202 205
-0.310000 0.505000 0.060000 198 202 205
-0.310000 -0.505000 0.060000 198 202 205
-0.309077 -0.516733 0.060000 198 202 205
-0.306329 -0.528176 0.060000 198 202 205
-0.301825 -0.539049 0.060000 198 202 205
-0.295676 -0.549084 0.060000 198 202 205
-0.288033 -0.558033 0.060000 198 202 205
-0.279084 -0.565676 0.060000 198 202 205
-0.269049 -0.571825 0.060000 198 202 205
-0.258176 -0.576329 0.060000 198 202 205
-0.246733 -0.579077 0.060000 198 202 205
-0.235000 -0.580000 0.060000 198 202 205
0.235000 -0.580000 0.060000 198 202 205
0.246733 -0.579077 0.060000 198 202 205
0.258176 -0.576329 0.060000 198 202 205
0.269049 -0.571825 0.060000 198 202 205
0.279084 -0.565676 0.060000 198 202 205
0.288033 -0.558033 0.060000 198 202 205
0.295676 -0.549084 0.060000 198 202 205
0.301825 -0.539049 0.060000 198 202 205
0.306329 -0.528176 0.060000 198 202 205
0.309077 -0.516733 0.060000 198 202 205
0.310000 -0.505000 0.060000 198 202 205
0.000000 0.000000 -0.060000 198 202 205
0.310000 0.505000 -0.060000 198 202 205
0.309077 0.516733 -0.060000 198 202 205
0.306329 0.528176 -0.060000 198 202 205
0.301825 0.539049 -0.060000 198 202 205
0.295676 0.549084 -0.060000 198 202 205
0.288033 0.558033 -0.060000 198 202 205
0.279084 0.565676 -0.060000 198 202 205
0.269049 0.571825 -0.060000 198 202 205
0.258176 0.576329 -0.060000 198 202 205
0.246733 0.579077 -0.060000 198 202 205
0.235000 0.580000 -0.060000 198 202 205
-0.235000 0.580000 -0.060000 198 202 205
-0.246733 0.579077 -0.060000 198 202 205
-0.258176 0.576329 -0.060000 198 202 205
-0.269049 0.571825 -0.060000 198 202 205
-0.279084 0.565676 -0.060000 198 202 205
-0.288033 0.558033 -0.060000 198 202 205
-0.295676 0.549084 -0.060000 198 202 205
-0.301825 0.539049 -0.060000 198 202 205
-0.306329 0.528176 -0.060000 198 202 205
-0.309077 0.516733 -0.060000 198 202 205
-0.310000 0.505000 -0.060000 198 202 205
-0.310000 -0.505000 -0.060000 198 202 205
-0.309077 -0.516733 -0.060000 198 202 205
-0.306329 -0.528176 -0.060000 198 202 205
-0.301825 -0.539049 -0.060000 198 202 205
-0.295676 -0.549084 -0.060000 198 202 205
-0.288033 -0.558033 -0.060000 198 202 205
-0.279084 -0.565676 -0.060000 198 202 205
-0.269049 -0.571825 -0.060000 198 202 205
-0.258176 -0.576329 -0.060000 198 202 205
-0.246733 -0.579077 -0.060000 198 202 205
-0.235000 -0.580000 -0.060000 198 202 205
0.235000 -0.580000 -0.060000 198 202 205
0.246733 -0.579077 -0.060000 198 202 205
0.258176 -0.576329 -0.060000 198 202 205
0.269049 -0.571825 -0.060000 198 202 205
0.279084 -0.565676 -0.060000 198 202 205
0.288033 -0.558033 -0.060000 198 202 205
0.295676 -0.549084 -0.060000 198 202 205
0.301825 -0.539049 -0.060000 198 202 205
0.306329 -0.528176 -0.060000 198 202 205
0.309077 -0.516733 -0.060000 198 202 205
0.310000 -0.505000 -0.060000 198 202 205
0.000000 0.000000 0.063000 6 8 12
0.280000 0.470000 0.063000 6 8 12
0.279261 0.479386 0.063000 6 8 12
0.277063 0.488541 0.063000 6 8 12
0.273460 0.497239 0.063000 6 8 12
0.268541 0.505267 0.063000 6 8 12
0.262426 0.512426 0.063000 6 8 12
0.255267 0.518541 0.063000 6 8 12
0.247239 0.523460 0.063000 6 8 12
0.238541 0.527063 0.063000 6 8 12
0.229386 0.529261 0.063000 6 8 12
0.220000 0.530000 0.063000 6 8 12
-0.220000 0.530000 0.063000 6 8 12
-0.229386 0.529261 0.063000 6 8 12
-0.238541 0.527063 0.063000 6 8 12
-0.247239 0.523460 0.063000 6 8 12
-0.255267 0.518541 0.063000 6 8 12
-0.262426 0.512426 0.063000 6 8 12
-0.268541 0.505267 0.063000 6 8 12
-0.273460 0.497239 0.063000 6 8 12
-0.277063 0.488541 0.063000 6 8 12
-0.279261 0.479386 0.063000 6 8 12
-0.280000 0.470000 0.063000 6 8 12
-0.280000 -0.470000 0.063000 6 8 12
-0.279261 -0.479386 0.063000 6 8 12
-0.277063 -0.488541 0.063000 6 8 12
-0.273460 -0.497239 0.063000 6 8 12
-0.268541 -0.505267 0.063000 6 8 12
-0.262426 -0.512426 0.063000 6 8 12
-0.255267 -0.518541 0.063000 6 8 12
-0.247239 -0.523460 0.063000 6 8 12
-0.238541 -0.527063 0.063000 6 8 12
-0.229386 -0.529261 0.063000 6 8 12
-0.220000 -0.530000 0.063000 6 8 12
0.220000 -0.530000 0.063000 6 8 12
0.229386 -0.529261 0.063000 6 8 12
0.238541 -0.527063 0.063000 6 8 12
0.247239 -0.523460 0.063000 6 8 12
0.255267 -0.518541 0.063000 6 8 12
0.262426 -0.512426 0.063000 6 8 12
0.268541 -0.505267 0.063000 6 8 12
0.273460 -0.497239 0.063000 6 8 12
0.277063 -0.488541 0.063000 6 8 12
0.279261 -0.479386 0.063000 6 8 12
0.280000 -0.470000 0.063000 6 8 12
-0.080000 0.070000 0.064000 42 48 56
-0.020000 0.470000 0.064000 42 48 56
-0.020492 0.476257 0.064000 42 48 56
-0.021958 0.482361 0.064000 42 48 56
-0.024360 0.488160 0.064000 42 48 56
-0.027639 0.493511 0.064000 42 48 56
-0.031716 0.498284 0.064000 42 48 56
-0.036489 0.502361 0.064000 42 48 56
-0.041840 0.505640 0.064000 42 48 56
-0.047639 0.508042 0.064000 42 48 56
-0.053743 0.509508 0.064000 42 48 56
-0.060000 0.510000 0.064000 42 48 56
-0.100000 0.510000 0.064000 42 48 56
-0.106257 0.509508 0.064000 42 48 56
-0.112361 0.508042 0.064000 42 48 56
-0.118160 0.505640 0.064000 42 48 56
-0.123511 0.502361 0.064000 42 48 56
-0.128284 0.498284 0.064000 42 48 56
-0.132361 0.493511 0.064000 42 48 56
-0.135640 0.488160 0.064000 42 48 56
-0.138042 0.482361 0.064000 42 48 56
-0.139508 0.476257 0.064000 42 48 56
-0.140000 0.470000 0.064000 42 48 56
-0.140000 -0.330000 0.064000 42 48 56
-0.139508 -0.336257 0.064000 42 48 56
-0.138042 -0.342361 0.064000 42 48 56
-0.135640 -0.348160 0.064000 42 48 56
-0.132361 -0.353511 0.064000 42 48 56
-0.128284 -0.358284 0.064000 42 48 56
-0.123511 -0.362361 0.064000 42 48 56
-0.118160 -0.365640 0.064000 42 48 56
-0.112361 -0.368042 0.064000 42 48 56
-0.106257 -0.369508 0.064000 42 48 56
-0.100000 -0.370000 0.064000 42 48 56
-0.060000 -0.370000 0.064000 42 48 56
-0.053743 -0.369508 0.064000 42 48 56
-0.047639 -0.368042 0.064000 42 48 56
-0.041840 -0.365640 0.064000 42 48 56
-0.036489 -0.362361 0.064000 42 48 56
-0.031716 -0.358284 0.064000 42 48 56
-0.027639 -0.353511 0.064000 42 48 56
-0.024360 -0.348160 0.064000 42 48 56
-0.021958 -0.342361 0.064000 42 48 56
-0.020492 -0.336257 0.064000 42 48 56
-0.020000 -0.330000 0.064000 42 48 56
0.000000 0.480000 0.065000 24 26 30
0.065000 0.480000 0.065000 24 26 30
0.064889 0.481408 0.065000 24 26 30
0.064560 0.482781 0.065000 24 26 30
0.064019 0.484086 0.065000 24 26 30
0.063281 0.485290 0.065000 24 26 30
0.062364 0.486364 0.065000 24 26 30
0.061290 0.487281 0.065000 24 26 30
0.060086 0.488019 0.065000 24 26 30
0.058781 0.488560 0.065000 24 26 30
0.057408 0.488889 0.065000 24 26 30
0.056000 0.489000 0.065000 24 26 30
-0.056000 0.489000 0.065000 24 26 30
-0.057408 0.488889 0.065000 24 26 30
-0.058781 0.488560 0.065000 24 26 30
-0.060086 0.488019 0.065000 24 26 30
-0.061290 0.487281 0.065000 24 26 30
-0.062364 0.486364 0.065000 24 26 30
-0.063281 0.485290 0.065000 24 26 30
-0.064019 0.484086 0.065000 24 26 30
-0.064560 0.482781 0.065000 24 26 30
-0.064889 0.481408 0.065000 24 26 30
-0.065000 0.480000 0.065000 24 26 30
-0.065000 0.480000 0.065000 24 26 30
-0.064889 0.478592 0.065000 24 26 30
-0.064560 0.477219 0.065000 24 26 30
-0.064019 0.475914 0.065000 24 26 30
-0.063281 0.474710 0.065000 24 26 30
-0.062364 0.473636 0.065000 24 26 30
-0.061290 0.472719 0.065000 24 26 30
-0.060086 0.471981 0.065000 24 26 30
-0.058781 0.471440 0.065000 24 26 30
-0.057408 0.471111 0.065000 24 26 30
-0.056000 0.471000 0.065000 24 26 30
0.056000 0.471000 0.065000 24 26 30
0.057408 0.471111 0.065000 24 26 30
0.058781 0.471440 0.065000 24 26 30
0.060086 0.471981 0.065000 24 26 30
0.061290 0.472719 0.065000 24 26 30
0.062364 0.473636 0.065000 24 26 30
0.063281 0.474710 0.065000 24 26 30
0.064019 0.475914 0.065000 24 26 30
0.064560 0.477219 0.065000 24 26 30
0.064889 0.478592 0.065000 24 26 30
0.065000 0.480000 0.065000 24 26 30
-0.170000 0.360000 -0.064000 132 138 145
-0.065000 0.475000 -0.064000 132 138 145
-0.065492 0.481257 -0.064000 132 138 145
-0.066958 0.487361 -0.064000 132 138 145
-0.069360 0.493160 -0.064000 132 138 145
-0.072639 0.498511 -0.064000 132 138 145
-0.076716 0.503284 -0.064000 132 138 145
-0.081489 0.507361 -0.064000 132 138 145
-0.086840 0.510640 -0.064000 132 138 145
-0.092639 0.513042 -0.064000 132 138 145
-0.098743 0.514508 -0.064000 132 138 145
-0.105000 0.515000 -0.064000 132 138 145
-0.235000 0.515000 -0.064000 132 138 145
-0.241257 0.514508 -0.064000 132 138 145
-0.247361 0.513042 -0.064000 132 138 145
-0.253160 0.510640 -0.064000 132 138 145
-0.258511 0.507361 -0.064000 132 138 145
-0.263284 0.503284 -0.064000 132 138 145
-0.267361 0.498511 -0.064000 132 138 145
-0.270640 0.493160 -0.064000 132 138 145
-0.273042 0.487361 -0.064000 132 138 145
-0.274508 0.481257 -0.064000 132 138 145
-0.275000 0.475000 -0.064000 132 138 145
-0.275000 0.245000 -0.064000 132 138 145
-0.274508 0.238743 -0.064000 132 138 145
-0.273042 0.232639 -0.064000 132 138 145
-0.270640 0.226840 -0.064000 132 138 145
-0.267361 0.221489 -0.064000 132 138 145
-0.263284 0.216716 -0.064000 132 138 145
-0.258511 0.212639 -0.064000 132 138 145
-0.253160 0.209360 -0.064000 132 138 145
-0.247361 0.206958 -0.064000 132 138 145
-0.241257 0.205492 -0.064000 132 138 145
-0.235000 0.205000 -0.064000 132 138 145
-0.105000 0.205000 -0.064000 132 138 145
-0.098743 0.205492 -0.064000 132 138 145
-0.092639 0.206958 -0.064000 132 138 145
-0.086840 0.209360 -0.064000 132 138 145
-0.081489 0.212639 -0.064000 132 138 145
-0.076716 0.216716 -0.064000 132 138 145
-0.072639 0.221489 -0.064000 132 138 145
-0.069360 0.226840 -0.064000 132 138 145
-0.066958 0.232639 -0.064000 132 138 145
-0.065492 0.238743 -0.064000 132 138 145
-0.065000 0.245000 -0.064000 132 138 145
-0.126000 0.435000 -0.066000 3 5 10
-0.126000 0.435000 -0.092000 3 5 10
-0.126462 0.442048 -0.066000 3 5 10
-0.126462 0.442048 -0.092000 3 5 10
-0.127840 0.448976 -0.066000 3 5 10
-0.127840 0.448976 -0.092000 3 5 10
-0.130111 0.455665 -0.066000 3 5 10
-0.130111 0.455665 -0.092000 3 5 10
-0.133235 0.462000 -0.066000 3 5 10
-0.133235 0.462000 -0.092000 3 5 10
-0.137159 0.467873 -0.066000 3 5 10
-0.137159 0.467873 -0.092000 3 5 10
-0.141816 0.473184 -0.066000 3 5 10
-0.141816 0.473184 -0.092000 3 5 10
-0.147127 0.477841 -0.066000 3 5 10
-0.147127 0.477841 -0.092000 3 5 10
-0.153000 0.481765 -0.066000 3 5 10
-0.153000 0.481765 -0.092000 3 5 10
-0.159335 0.484889 -0.066000 3 5 10
-0.159335 0.484889 -0.092000 3 5 10
-0.166024 0.487160 -0.066000 3 5 10
-0.166024 0.487160 -0.092000 3 5 10
-0.172952 0.488538 -0.066000 3 5 10
-0.172952 0.488538 -0.092000 3 5 10
-0.180000 0.489000 -0.066000 3 5 10
-0.180000 0.489000 -0.092000 3 5 10
-0.187048 0.488538 -0.066000 3 5 10
-0.187048 0.488538 -0.092000 3 5 10
-0.193976 0.487160 -0.066000 3 5 10
-0.193976 0.487160 -0.092000 3 5 10
-0.200665 0.484889 -0.066000 3 5 10
-0.200665 0.484889 -0.092000 3 5 10
-0.207000 0.481765 -0.066000 3 5 10
-0.207000 0.481765 -0.092000 3 5 10
-0.212873 0.477841 -0.066000 3 5 10
-0.212873 0.477841 -0.092000 3 5 10
-0.218184 0.473184 -0.066000 3 5 10
-0.218184 0.473184 -0.092000 3 5 10
-0.222841 0.467873 -0.066000 3 5 10
-0.222841 0.467873 -0.092000 3 5 10
-0.226765 0.462000 -0.066000 3 5 10
-0.226765 0.462000 -0.092000 3 5 10
-0.229889 0.455665 -0.066000 3 5 10
-0.229889 0.455665 -0.092000 3 5 10
-0.232160 0.448976 -0.066000 3 5 10
-0.232160 0.448976 -0.092000 3 5 10
-0.233538 0.442048 -0.066000 3 5 10
-0.233538 0.442048 -0.092000 3 5 10
-0.234000 0.435000 -0.066000 3 5 10
-0.234000 0.435000 -0.092000 3 5 10
-0.233538 0.427952 -0.066000 3 5 10
-0.233538 0.427952 -0.092000 3 5 10
-0.232160 0.421024 -0.066000 3 5 10
-0.232160 0.421024 -0.092000 3 5 10
-0.229889 0.414335 -0.066000 3 5 10
-0.229889 0.414335 -0.092000 3 5 10
-0.226765 0.408000 -0.066000 3 5 10
-0.226765 0.408000 -0.092000 3 5 10
-0.222841 0.402127 -0.066000 3 5 10
-0.222841 0.402127 -0.092000 3 5 10
-0.218184 0.396816 -0.066000 3 5 10
-0.218184 0.396816 -0.092000 3 5 10
-0.212873 0.392159 -0.066000 3 5 10
-0.212873 0.392159 -0.092000 3 5 10
-0.207000 0.388235 -0.066000 3 5 10
-0.207000 0.388235 -0.092000 3 5 10
-0.200665 0.385111 -0.066000 3 5 10
-0.200665 0.385111 -0.092000 3 5 10
-0.193976 0.382840 -0.066000 3 5 10
-0.193976 0.382840 -0.092000 3 5 10
-0.187048 0.381462 -0.066000 3 5 10
-0.187048 0.381462 -0.092000 3 5 10
-0.180000 0.381000 -0.066000 3 5 10
-0.180000 0.381000 -0.092000 3 5 10
-0.172952 0.381462 -0.066000 3 5 10
-0.172952 0.381462 -0.092000 3 5 10
-0.166024 0.382840 -0.066000 3 5 10
-0.166024 0.382840 -0.092000 3 5 10
-0.159335 0.385111 -0.066000 3 5 10
-0.159335 0.385111 -0.092000 3 5 10
-0.153000 0.388235 -0.066000 3 5 10
-0.153000 0.388235 -0.092000 3 5 10
-0.147127 0.392159 -0.066000 3 5 10
-0.147127 0.392159 -0.092000 3 5 10
-0.141816 0.396816 -0.066000 3 5 10
-0.141816 0.396816 -0.092000 3 5 10
-0.137159 0.402127 -0.066000 3 5 10
-0.137159 0.402127 -0.092000 3 5 10
-0.133235 0.408000 -0.066000 3 5 10
-0.133235 0.408000 -0.092000 3 5 10
-0.130111 0.414335 -0.066000 3 5 10
-0.130111 0.414335 -0.092000 3 5 10
-0.127840 0.421024 -0.066000 3 5 10
-0.127840 0.421024 -0.092000 3 5 10
-0.126462 0.427952 -0.066000 3 5 10
-0.126462 0.427952 -0.092000 3 5 10
-0.180000 0.435000 -0.066000 3 5 10
-0.126000 0.435000 -0.066000 3 5 10
-0.126462 0.442048 -0.066000 3 5 10
-0.127840 0.448976 -0.066000 3 5 10
-0.130111 0.455665 -0.066000 3 5 10
-0.133235 0.462000 -0.066000 3 5 10
-0.137159 0.467873 -0.066000 3 5 10
-0.141816 0.473184 -0.066000 3 5 10
-0.147127 0.477841 -0.066000 3 5 10
-0.153000 0.481765 -0.066000 3 5 10
-0.159335 0.484889 -0.066000 3 5 10
-0.166024 0.487160 -0.066000 3 5 10
-0.172952 0.488538 -0.066000 3 5 10
-0.180000 0.489000 -0.066000 3 5 10
-0.187048 0.488538 -0.066000 3 5 10
-0.193976 0.487160 -0.066000 3 5 10
-0.200665 0.484889 -0.066000 3 5 10
-0.207000 0.481765 -0.066000 3 5 10
-0.212873 0.477841 -0.066000 3 5 10
-0.218184 0.473184 -0.066000 3 5 10
-0.222841 0.467873 -0.066000 3 5 10
-0.226765 0.462000 -0.066000 3 5 10
-0.229889 0.455665 -0.066000 3 5 10
-0.232160 0.448976 -0.066000 3 5 10
-0.233538 0.442048 -0.066000 3 5 10
-0.234000 0.435000 -0.066000 3 5 10
-0.233538 0.427952 -0.066000 3 5 10
-0.232160 0.421024 -0.066000 3 5 10
-0.229889 0.414335 -0.066000 3 5 10
-0.226765 0.408000 -0.066000 3 5 10
-0.222841 0.402127 -0.066000 3 5 10
-0.218184 0.396816 -0.066000 3 5 10
-0.212873 0.392159 -0.066000 3 5 10
-0.207000 0.388235 -0.066000 3 5 10
-0.200665 0.385111 -0.066000 3 5 10
-0.193976 0.382840 -0.066000 3 5 10
-0.187048 0.381462 -0.066000 3 5 10
-0.180000 0.381000 -0.066000 3 5 10
-0.172952 0.381462 -0.066000 3 5 10
-0.166024 0.382840 -0.066000 3 5 10
-0.159335 0.385111 -0.066000 3 5 10
-0.153000 0.388235 -0.066000 3 5 10
-0.147127 0.392159 -0.066000 3 5 10
-0.141816 0.396816 -0.066000 3 5 10
-0.137159 0.402127 -0.066000 3 5 10
-0.133235 0.408000 -0.066000 3 5 10
-0.130111 0.414335 -0.066000 3 5 10
-0.127840 0.421024 -0.066000 3 5 10
-0.126462 0.427952 -0.066000 3 5 10
-0.180000 0.435000 -0.094000 21 39 67
-0.143000 0.435000 -0.094000 21 39 67
-0.143317 0.439829 -0.094000 21 39 67
-0.144261 0.444576 -0.094000 21 39 67
-0.145816 0.449159 -0.094000 21 39 67
-0.147957 0.453500 -0.094000 21 39 67
-0.150646 0.457524 -0.094000 21 39 67
-0.153837 0.461163 -0.094000 21 39 67
-0.157476 0.464354 -0.094000 21 39 67
-0.161500 0.467043 -0.094000 21 39 67
-0.165841 0.469184 -0.094000 21 39 67
-0.170424 0.470739 -0.094000 21 39 67
-0.175171 0.471683 -0.094000 21 39 67
-0.180000 0.472000 -0.094000 21 39 67
-0.184829 0.471683 -0.094000 21 39 67
-0.189576 0.470739 -0.094000 21 39 67
-0.194159 0.469184 -0.094000 21 39 67
-0.198500 0.467043 -0.094000 21 39 67
-0.202524 0.464354 -0.094000 21 39 67
-0.206163 0.461163 -0.094000 21 39 67
-0.209354 0.457524 -0.094000 21 39 67
-0.212043 0.453500 -0.094000 21 39 67
-0.214184 0.449159 -0.094000 21 39 67
-0.215739 0.444576 -0.094000 21 39 67
-0.216683 0.439829 -0.094000 21 39 67
-0.217000 0.435000 -0.094000 21 39 67
-0.216683 0.430171 -0.094000 21 39 67
-0.215739 0.425424 -0.094000 21 39 67
-0.214184 0.420841 -0.094000 21 39 67
-0.212043 0.416500 -0.094000 21 39 67
-0.209354 0.412476 -0.094000 21 39 67
-0.206163 0.408837 -0.094000 21 39 67
-0.202524 0.405646 -0.094000 21 39 67
-0.198500 0.402957 -0.094000 21 39 67
-0.194159 0.400816 -0.094000 21 39 67
-0.189576 0.399261 -0.094000 21 39 67
-0.184829 0.398317 -0.094000 21 39 67
-0.180000 0.398000 -0.094000 21 39 67
-0.175171 0.398317 -0.094000 21 39 67
-0.170424 0.399261 -0.094000 21 39 67
-0.165841 0.400816 -0.094000 21 39 67
-0.161500 0.402957 -0.094000 21 39 67
-0.157476 0.405646 -0.094000 21 39 67
-0.153837 0.408837 -0.094000 21 39 67
-0.150646 0.412476 -0.094000 21 39 67
-0.147957 0.416500 -0.094000 21 39 67
-0.145816 0.420841 -0.094000 21 39 67
-0.144261 0.425424 -0.094000 21 39 67
-0.143317 0.430171 -0.094000 21 39 67
-0.165000 0.448000 -0.095000 125 150 180
-0.154000 0.448000 -0.095000 125 150 180
-0.154094 0.449436 -0.095000 125 150 180
-0.154375 0.450847 -0.095000 125 150 180
-0.154837 0.452210 -0.095000 125 150 180
-0.155474 0.453500 -0.095000 125 150 180
-0.156273 0.454696 -0.095000 125 150 180
-0.157222 0.455778 -0.095000 125 150 180
-0.158304 0.456727 -0.095000 125 150 180
-0.159500 0.457526 -0.095000 125 150 180
-0.160790 0.458163 -0.095000 125 150 180
-0.162153 0.458625 -0.095000 125 150 180
-0.163564 0.458906 -0.095000 125 150 180
-0.165000 0.459000 -0.095000 125 150 180
-0.166436 0.458906 -0.095000 125 150 180
-0.167847 0.458625 -0.095000 125 150 180
-0.169210 0.458163 -0.095000 125 150 180
-0.170500 0.457526 -0.095000 125 150 180
-0.171696 0.456727 -0.095000 125 150 180
-0.172778 0.455778 -0.095000 125 150 180
-0.173727 0.454696 -0.095000 125 150 180
-0.174526 0.453500 -0.095000 125 150 180
-0.175163 0.452210 -0.095000 125 150 180
-0.175625 0.450847 -0.095000 125 150 180
-0.175906 0.449436 -0.095000 125 150 180
-0.176000 0.448000 -0.095000 125 150 180
-0.175906 0.446564 -0.095000 125 150 180
-0.175625 0.445153 -0.095000 125 150 180
-0.175163 0.443790 -0.095000 125 150 180
-0.174526 0.442500 -0.095000 125 150 180
-0.173727 0.441304 -0.095000 125 150 180
-0.172778 0.440222 -0.095000 125 150 180
-0.171696 0.439273 -0.095000 125 150 180
-0.170500 0.438474 -0.095000 125 150 180
-0.169210 0.437837 -0.095000 125 150 180
-0.167847 0.437375 -0.095000 125 150 180
-0.166436 0.437094 -0.095000 125 150 180
-0.165000 0.437000 -0.095000 125 150 180
-0.163564 0.437094 -0.095000 125 150 180
-0.162153 0.437375 -0.095000 125 150 180
-0.160790 0.437837 -0.095000 125 150 180
-0.159500 0.438474 -0.095000 125 150 180
-0.158304 0.439273 -0.095000 125 150 180
-0.157222 0.440222 -0.095000 125 150 180
-0.156273 0.441304 -0.095000 125 150 180
-0.155474 0.442500 -0.095000 125 150 180
-0.154837 0.443790 -0.095000 125 150 180
-0.154375 0.445153 -0.095000 125 150 180
-0.154094 0.446564 -0.095000 125 150 180
-0.126000 0.310000 -0.066000 3 5 10
-0.126000 0.310000 -0.092000 3 5 10
-0.126462 0.317048 -0.066000 3 5 10
-0.126462 0.317048 -0.092000 3 5 10
-0.127840 0.323976 -0.066000 3 5 10
-0.127840 0.323976 -0.092000 3 5 10
-0.130111 0.330665 -0.066000 3 5 10
-0.130111 0.330665 -0.092000 3 5 10
-0.133235 0.337000 -0.066000 3 5 10
-0.133235 0.337000 -0.092000 3 5 10
-0.137159 0.342873 -0.066000 3 5 10
-0.137159 0.342873 -0.092000 3 5 10
-0.141816 0.348184 -0.066000 3 5 10
-0.141816 0.348184 -0.092000 3 5 10
-0.147127 0.352841 -0.066000 3 5 10
-0.147127 0.352841 -0.092000 3 5 10
-0.153000 0.356765 -0.066000 3 5 10
-0.153000 0.356765 -0.092000 3 5 10
-0.159335 0.359889 -0.066000 3 5 10
-0.159335 0.359889 -0.092000 3 5 10
-0.166024 0.362160 -0.066000 3 5 10
-0.166024 0.362160 -0.092000 3 5 10
-0.172952 0.363538 -0.066000 3 5 10
-0.172952 0.363538 -0.092000 3 5 10
-0.180000 0.364000 -0.066000 3 5 10
-0.180000 0.364000 -0.092000 3 5 10
-0.187048 0.363538 -0.066000 3 5 10
-0.187048 0.363538 -0.092000 3 5 10
-0.193976 0.362160 -0.066000 3 5 10
-0.193976 0.362160 -0.092000 3 5 10
-0.200665 0.359889 -0.066000 3 5 10
-0.200665 0.359889 -0.092000 3 5 10
-0.207000 0.356765 -0.066000 3 5 10
-0.207000 0.356765 -0.092000 3 5 10
-0.212873 0.352841 -0.066000 3 5 10
-0.212873 0.352841 -0.092000 3 5 10
-0.218184 0.348184 -0.066000 3 5 10
-0.218184 0.348184 -0.092000 3 5 10
-0.222841 0.342873 -0.066000 3 5 10
-0.222841 0.342873 -0.092000 3 5 10
-0.226765 0.337000 -0.066000 3 5 10
-0.226765 0.337000 -0.092000 3 5 10
-0.229889 0.330665 -0.066000 3 5 10
-0.229889 0.330665 -0.092000 3 5 10
-0.232160 0.323976 -0.066000 3 5 10
-0.232160 0.323976 -0.092000 3 5 10
-0.233538 0.317048 -0.066000 3 5 10
-0.233538 0.317048 -0.092000 3 5 10
-0.234000 0.310000 -0.066000 3 5 10
-0.234000 0.310000 -0.092000 3 5 10
-0.233538 0.302952 -0.066000 3 5 10
-0.233538 0.302952 -0.092000 3 5 10
-0.232160 0.296024 -0.066000 3 5 10
-0.232160 0.296024 -0.092000 3 5 10
-0.229889 0.289335 -0.066000 3 5 10
-0.229889 0.289335 -0.092000 3 5 10
-0.226765 0.283000 -0.066000 3 5 10
-0.226765 0.283000 -0.092000 3 5 10
-0.222841 0.277127 -0.066000 3 5 10
-0.222841 0.277127 -0.092000 3 5 10
-0.218184 0.271816 -0.066000 3 5 10
-0.218184 0.271816 -0.092000 3 5 10
-0.212873 0.267159 -0.066000 3 5 10
-0.212873 0.267159 -0.092000 3 5 10
-0.207000 0.263235 -0.066000 3 5 10
-0.207000 0.263235 -0.092000 3 5 10
-0.200665 0.260111 -0.066000 3 5 10
-0.200665 0.260111 -0.092000 3 5 10
-0.193976 0.257840 -0.066000 3 5 10
-0.193976 0.257840 -0.092000 3 5 10
-0.187048 0.256462 -0.066000 3 5 10
-0.187048 0.256462 -0.092000 3 5 10
-0.180000 0.256000 -0.066000 3 5 10
-0.180000 0.256000 -0.092000 3 5 10
-0.172952 0.256462 -0.066000 3 5 10
-0.172952 0.256462 -0.092000 3 5 10
-0.166024 0.257840 -0.066000 3 5 10
-0.166024 0.257840 -0.092000 3 5 10
-0.159335 0.260111 -0.066000 3 5 10
-0.159335 0.260111 -0.092000 3 5 10
-0.153000 0.263235 -0.066000 3 5 10
-0.153000 0.263235 -0.092000 3 5 10
-0.147127 0.267159 -0.066000 3 5 10
-0.147127 0.267159 -0.092000 3 5 10
-0.141816 0.271816 -0.066000 3 5 10
-0.141816 0.271816 -0.092000 3 5 10
-0.137159 0.277127 -0.066000 3 5 10
-0.137159 0.277127 -0.092000 3 5 10
-0.133235 0.283000 -0.066000 3 5 10
-0.133235 0.283000 -0.092000 3 5 10
-0.130111 0.289335 -0.066000 3 5 10
-0.130111 0.289335 -0.092000 3 5 10
-0.127840 0.296024 -0.066000 3 5 10
-0.127840 0.296024 -0.092000 3 5 10
-0.126462 0.302952 -0.066000 3 5 10
-0.126462 0.302952 -0.092000 3 5 10
-0.180000 0.310000 -0.066000 3 5 10
-0.126000 0.310000 -0.066000 3 5 10
-0.126462 0.317048 -0.066000 3 5 10
-0.127840 0.323976 -0.066000 3 5 10
-0.130111 0.330665 -0.066000 3 5 10
-0.133235 0.337000 -0.066000 3 5 10
-0.137159 0.342873 -0.066000 3 5 10
-0.141816 0.348184 -0.066000 3 5 10
-0.147127 0.352841 -0.066000 3 5 10
-0.153000 0.356765 -0.066000 3 5 10
-0.159335 0.359889 -0.066000 3 5 10
-0.166024 0.362160 -0.066000 3 5 10
-0.172952 0.363538 -0.066000 3 5 10
-0.180000 0.364000 -0.066000 3 5 10
-0.187048 0.363538 -0.066000 3 5 10
-0.193976 0.362160 -0.066000 3 5 10
-0.200665 0.359889 -0.066000 3 5 10
-0.207000 0.356765 -0.066000 3 5 10
-0.212873 0.352841 -0.066000 3 5 10
-0.218184 0.348184 -0.066000 3 5 10
-0.222841 0.342873 -0.066000 3 5 10
-0.226765 0.337000 -0.066000 3 5 10
-0.229889 0.330665 -0.066000 3 5 10
-0.232160 0.323976 -0.066000 3 5 10
-0.233538 0.317048 -0.066000 3 5 10
-0.234000 0.310000 -0.066000 3 5 10
-0.233538 0.302952 -0.066000 3 5 10
-0.232160 0.296024 -0.066000 3 5 10
-0.229889 0.289335 -0.066000 3 5 10
-0.226765 0.283000 -0.066000 3 5 10
-0.222841 0.277127 -0.066000 3 5 10
-0.218184 0.271816 -0.066000 3 5 10
-0.212873 0.267159 -0.066000 3 5 10
-0.207000 0.263235 -0.066000 3 5 10
-0.200665 0.260111 -0.066000 3 5 10
-0.193976 0.257840 -0.066000 3 5 10
-0.187048 0.256462 -0.066000 3 5 10
-0.180000 0.256000 -0.066000 3 5 10
-0.172952 0.256462 -0.066000 3 5 10
-0.166024 0.257840 -0.066000 3 5 10
-0.159335 0.260111 -0.066000 3 5 10
-0.153000 0.263235 -0.066000 3 5 10
-0.147127 0.267159 -0.066000 3 5 10
-0.141816 0.271816 -0.066000 3 5 10
-0.137159 0.277127 -0.066000 3 5 10
-0.133235 0.283000 -0.066000 3 5 10
-0.130111 0.289335 -0.066000 3 5 10
-0.127840 0.296024 -0.066000 3 5 10
-0.126462 0.302952 -0.066000 3 5 10
-0.180000 0.310000 -0.094000 21 39 67
-0.143000 0.310000 -0.094000 21 39 67
-0.143317 0.314829 -0.094000 21 39 67
-0.144261 0.319576 -0.094000 21 39 67
-0.145816 0.324159 -0.094000 21 39 67
-0.147957 0.328500 -0.094000 21 39 67
-0.150646 0.332524 -0.094000 21 39 67
-0.153837 0.336163 -0.094000 21 39 67
-0.157476 0.339354 -0.094000 21 39 67
-0.161500 0.342043 -0.094000 21 39 67
-0.165841 0.344184 -0.094000 21 39 67
-0.170424 0.345739 -0.094000 21 39 67
-0.175171 0.346683 -0.094000 21 39 67
-0.180000 0.347000 -0.094000 21 39 67
-0.184829 0.346683 -0.094000 21 39 67
-0.189576 0.345739 -0.094000 21 39 67
-0.194159 0.344184 -0.094000 21 39 67
-0.198500 0.342043 -0.094000 21 39 67
-0.202524 0.339354 -0.094000 21 39 67
-0.206163 0.336163 -0.094000 21 39 67
-0.209354 0.332524 -0.094000 21 39 67
-0.212043 0.328500 -0.094000 21 39 67
-0.214184 0.324159 -0.094000 21 39 67
-0.215739 0.319576 -0.094000 21 39 67
-0.216683 0.314829 -0.094000 21 39 67
-0.217000 0.310000 -0.094000 21 39 67
-0.216683 0.305171 -0.094000 21 39 67
-0.215739 0.300424 -0.094000 21 39 67
-0.214184 0.295841 -0.094000 21 39 67
-0.212043 0.291500 -0.094000 21 39 67
-0.209354 0.287476 -0.094000 21 39 67
-0.206163 0.283837 -0.094000 21 39 67
-0.202524 0.280646 -0.094000 21 39 67
-0.198500 0.277957 -0.094000 21 39 67
-0.194159 0.275816 -0.094000 21 39 67
-0.189576 0.274261 -0.094000 21 39 67
-0.184829 0.273317 -0.094000 21 39 67
-0.180000 0.273000 -0.094000 21 39 67
-0.175171 0.273317 -0.094000 21 39 67
-0.170424 0.274261 -0.094000 21 39 67
-0.165841 0.275816 -0.094000 21 39 67
-0.161500 0.277957 -0.094000 21 39 67
-0.157476 0.280646 -0.094000 21 39 67
-0.153837 0.283837 -0.094000 21 39 67
-0.150646 0.287476 -0.094000 21 39 67
-0.147957 0.291500 -0.094000 21 39 67
-0.145816 0.295841 -0.094000 21 39 67
-0.144261 0.300424 -0.094000 21 39 67
-0.143317 0.305171 -0.094000 21 39 67
-0.165000 0.323000 -0.095000 125 150 180
-0.154000 0.323000 -0.095000 125 150 180
-0.154094 0.324436 -0.095000 125 150 180
-0.154375 0.325847 -0.095000 125 150 180
-0.154837 0.327210 -0.095000 125 150 180
-0.155474 0.328500 -0.095000 125 150 180
-0.156273 0.329696 -0.095000 125 150 180
-0.157222 0.330778 -0.095000 125 150 180
-0.158304 0.331727 -0.095000 125 150 180
-0.159500 0.332526 -0.095000 125 150 180
-0.160790 0.333163 -0.095000 125 150 180
-0.162153 0.333625 -0.095000 125 150 180
-0.163564 0.333906 -0.095000 125 150 180
-0.165000 0.334000 -0.095000 125 150 180
-0.166436 0.333906 -0.095000 125 150 180
-0.167847 0.333625 -0.095000 125 150 180
-0.169210 0.333163 -0.095000 125 150 180
-0.170500 0.332526 -0.095000 125 150 180
-0.171696 0.331727 -0.095000 125 150 180
-0.172778 0.330778 -0.095000 125 150 180
-0.173727 0.329696 -0.095000 125 150 180
-0.174526 0.328500 -0.095000 125 150 180
-0.175163 0.327210 -0.095000 125 150 180
-0.175625 0.325847 -0.095000 125 150 180
-0.175906 0.324436 -0.095000 125 150 180
-0.176000 0.323000 -0.095000 125 150 180
-0.175906 0.321564 -0.095000 125 150 180
-0.175625 0.320153 -0.095000 125 150 180
-0.175163 0.318790 -0.095000 125 150 180
-0.174526 0.317500 -0.095000 125 150 180
-0.173727 0.316304 -0.095000 125 150 180
-0.172778 0.315222 -0.095000 125 150 180
-0.171696 0.314273 -0.095000 125 150 180
-0.170500 0.313474 -0.095000 125 150 180
-0.169210 0.312837 -0.095000 125 150 180
-0.167847 0.312375 -0.095000 125 150 180
-0.166436 0.312094 -0.095000 125 150 180
-0.165000 0.312000 -0.095000 125 150 180
-0.163564 0.312094 -0.095000 125 150 180
-0.162153 0.312375 -0.095000 125 150 180
-0.160790 0.312837 -0.095000 125 150 180
-0.159500 0.313474 -0.095000 125 150 180
-0.158304 0.314273 -0.095000 125 150 180
-0.157222 0.315222 -0.095000 125 150 180
-0.156273 0.316304 -0.095000 125 150 180
-0.155474 0.317500 -0.095000 125 150 180
-0.154837 0.318790 -0.095000 125 150 180
-0.154375 0.320153 -0.095000 125 150 180
-0.154094 0.321564 -0.095000 125 150 180
-0.075000 0.365000 -0.070000 246 225 148
-0.055000 0.365000 -0.070000 246 225 148
-0.055171 0.367611 -0.070000 246 225 148
-0.055681 0.370176 -0.070000 246 225 148
-0.056522 0.372654 -0.070000 246 225 148
-0.057679 0.375000 -0.070000 246 225 148
-0.059133 0.377175 -0.070000 246 225 148
-0.060858 0.379142 -0.070000 246 225 148
-0.062825 0.380867 -0.070000 246 225 148
-0.065000 0.382321 -0.070000 246 225 148
-0.067346 0.383478 -0.070000 246 225 148
-0.069824 0.384319 -0.070000 246 225 148
-0.072389 0.384829 -0.070000 246 225 148
-0.075000 0.385000 -0.070000 246 225 148
-0.077611 0.384829 -0.070000 246 225 148
-0.080176 0.384319 -0.070000 246 225 148
-0.082654 0.383478 -0.070000 246 225 148
-0.085000 0.382321 -0.070000 246 225 148
-0.087175 0.380867 -0.070000 246 225 148
-0.089142 0.379142 -0.070000 246 225 148
-0.090867 0.377175 -0.070000 246 225 148
-0.092321 0.375000 -0.070000 246 225 148
-0.093478 0.372654 -0.070000 246 225 148
-0.094319 0.370176 -0.070000 246 225 148
-0.094829 0.367611 -0.070000 246 225 148
-0.095000 0.365000 -0.070000 246 225 148
-0.094829 0.362389 -0.070000 246 225 148
-0.094319 0.359824 -0.070000 246 225 148
-0.093478 0.357346 -0.070000 246 225 148
-0.092321 0.355000 -0.070000 246 225 148
-0.090867 0.352825 -0.070000 246 225 148
-0.089142 0.350858 -0.070000 246 225 148
-0.087175 0.349133 -0.070000 246 225 148
-0.085000 0.347679 -0.070000 246 225 148
-0.082654 0.346522 -0.070000 246 225 148
-0.080176 0.345681 -0.070000 246 225 148
-0.077611 0.345171 -0.070000 246 225 148
-0.075000 0.345000 -0.070000 246 225 148
-0.072389 0.345171 -0.070000 246 225 148
-0.069824 0.345681 -0.070000 246 225 148
-0.067346 0.346522 -0.070000 246 225 148
-0.065000 0.347679 -0.070000 246 225 148
-0.062825 0.349133 -0.070000 246 225 148
-0.060858 0.350858 -0.070000 246 225 148
-0.059133 0.352825 -0.070000 246 225 148
-0.057679 0.355000 -0.070000 246 225 148
-0.056522 0.357346 -0.070000 246 225 148
-0.055681 0.359824 -0.070000 246 225 148
-0.055171 0.362389 -0.070000 246 225 148
0.312000 0.120000 -0.030000 132 138 145
0.335000 0.120000 -0.030000 132 138 145
0.335000 0.280000 -0.030000 132 138 145
0.312000 0.280000 -0.030000 132 138 145
0.312000 0.120000 0.030000 132 138 145
0.335000 0.120000 0.030000 132 138 145
0.335000 0.280000 0.030000 132 138 145
0.312000 0.280000 0.030000 132 138 145
-0.335000 -0.200000 -0.026000 132 138 145
-0.312000 -0.200000 -0.026000 132 138 145
-0.312000 -0.060000 -0.026000 132 138 145
-0.335000 -0.060000 -0.026000 132 138 145
-0.335000 -0.200000 0.026000 132 138 145
-0.312000 -0.200000 0.026000 132 138 145
-0.312000 -0.060000 0.026000 132 138 145
-0.335000 -0.060000 0.026000 132 138 145
3 0 1 2
3 0 2 3
3 0 3 4
3 0 4 5
3 0 5 6
3 0 6 7
3 0 7 8
3 0 8 9
3 0 9 10
3 0 10 11
3 0 11 12
3 0 12 13
3 0 13 14
3 0 14 15
3 0 15 16
3 0 16 17
3 0 17 18
3 0 18 19
3 0 19 20
3 0 20 21
3 0 21 22
3 0 22 23
3 0 23 24
3 0 24 25
3 0 25 26
3 0 26 27
3 0 27 28
3 0 28 29
3 0 29 30
3 0 30 31
3 0 31 32
3 0 32 33
3 0 33 34
3 0 34 35
3 0 35 36
3 0 36 37
3 0 37 38
3 0 38 39
3 0 39 40
3 0 40 41
3 0 41 42
3 0 42 43
3 0 43 44
3 0 44 1
3 47 46 45
3 48 47 45
3 49 48 45
3 50 49 45
3 51 50 45
3 52 51 45
3 53 52 45
3 54 53 45
3 55 54 45
3 56 55 45
3 57 56 45
3 58 57 45
3 59 58 45
3 60 59 45
3 61 60 45
3 62 61 45
3 63 62 45
3 64 63 45
3 65 64 45
3 66 65 45
3 67 66 45
3 68 67 45
3 69 68 45
3 70 69 45
3 71 70 45
3 72 71 45
3 73 72 45
3 74 73 45
3 75 74 45
3 76 75 45
3 77 76 45
3 78 77 45
3 79 78 45
3 80 79 45
3 81 80 45
3 82 81 45
3 83 82 45
3 84 83 45
3 85 84 45
3 86 85 45
3 87 86 45
3 88 87 45
3 89 88 45
3 46 89 45
4 1 46 47 2
4 2 47 48 3
4 3 48 49 4
4 4 49 50 5
4 5 50 51 6
4 6 51 52 7
4 7 52 53 8
4 8 53 54 9
4 9 54 55 10
4 10 55 56 11
4 11 56 57 12
4 12 57 58 13
4 13 58 59 14
4 14 59 60 15
4 15 60 61 16
4 16 61 62 17
4 17 62 63 18
4 18 63 64 19
4 19 64 65 20
4 20 65 66 21
4 21 66 67 22
4 22 67 68 23
4 23 68 69 24
4 24 69 70 25
4 25 70 71 26
4 26 71 72 27
4 27 72 73 28
4 28 73 74 29
4 29 74 75 30
4 30 75 76 31
4 31 76 77 32
4 32 77 78 33
4 33 78 79 34
4 34 79 80 35
4 35 80 81 36
4 36 81 82 37
4 37 82 83 38
4 38 83 84 39
4 39 84 85 40
4 40 85 86 41
4 41 86 87 42
4 42 87 88 43
4 43 88 89 44
4 44 89 46 1
3 90 91 92
3 90 92 93
3 90 93 94
3 90 94 95
3 90 95 96
3 90 96 97
3 90 97 98
3 90 98 99
3 90 99 100
3 90 100 101
3 90 101 102
3 90 102 103
3 90 103 104
3 90 104 105
3 90 105 106
3 90 106 107
3 90 107 108
3 90 108 109
3 90 109 110
3 90 110 111
3 90 111 112
3 90 112 113
3 90 113 114
3 90 114 115
3 90 115 116
3 90 116 117
3 90 117 118
3 90 118 119
3 90 119 120
3 90 120 121
3 90 121 122
3 90 122 123
3 90 123 124
3 90 124 125
3 90 125 126
3 90 126 127
3 90 127 128
3 90 128 129
3 90 129 130
3 90 130 131
3 90 131 132
3 90 132 133
3 90 133 134
3 90 134 91
3 135 136 137
3 135 137 138
3 135 138 139
3 135 139 140
3 135 140 141
3 135 141 142
3 135 142 143
3 135 143 144
3 135 144 145
3 135 145 146
3 135 146 147
3 135 147 148
3 135 148 149
3 135 149 150
3 135 150 151
3 135 151 152
3 135 152 153
3 135 153 154
3 135 154 155
3 135 155 156
3 135 156 157
3 135 157 158
3 135 158 159
3 135 159 160
3 135 160 161
3 135 161 162
3 135 162 163
3 135 163 164
3 135 164 165
3 135 165 166
3 135 166 167
3 135 167 168
3 135 168 169
3 135 169 170
3 135 170 171
3 135 171 172
3 135 172 173
3 135 173 174
3 135 174 175
3 135 175 176
3 135 176 177
3 135 177 178
3 135 178 179
3 135 179 136
3 180 181 182
3 180 182 183
3 180 183 184
3 180 184 185
3 180 185 186
3 180 186 187
3 180 187 188
3 180 188 189
3 180 189 190
3 180 190 191
3 180 191 192
3 180 192 193
3 180 193 194
3 180 194 195
3 180 195 196
3 180 196 197
3 180 197 198
3 180 198 199
3 180 199 200
3 180 200 201
3 180 201 202
3 180 202 203
3 180 203 204
3 180 204 205
3 180 205 206
3 180 206 207
3 180 207 208
3 180 208 209
3 180 209 210
3 180 210 211
3 180 211 212
3 180 212 213
3 180 213 214
3 180 214 215
3 180 215 216
3 180 216 217
3 180 217 218
3 180 218 219
3 180 219 220
3 180 220 221
3 180 221 222
3 180 222 223
3 180 223 224
3 180 224 181
3 227 226 225
3 228 227 225
3 229 228 225
3 230 229 225
3 231 230 225
3 232 231 225
3 233 232 225
3 234 233 225
3 235 234 225
3 236 235 225
3 237 236 225
3 238 237 225
3 239 238 225
3 240 239 225
3 241 240 225
3 242 241 225
3 243 242 225
3 244 243 225
3 245 244 225
3 246 245 225
3 247 246 225
3 248 247 225
3 249 248 225
3 250 249 225
3 251 250 225
3 252 251 225
3 253 252 225
3 254 253 225
3 255 254 225
3 256 255 225
3 257 256 225
3 258 257 225
3 259 258 225
3 260 259 225
3 261 260 225
3 262 261 225
3 263 262 225
3 264 263 225
3 265 264 225
3 266 265 225
3 267 266 225
3 268 267 225
3 269 268 225
3 226 269 225
4 270 271 273 272
4 272 273 275 274
4 274 275 277 276
4 276 277 279 278
4 278 279 281 280
4 280 281 283 282
4 282 283 285 284
4 284 285 287 286
4 286 287 289 288
4 288 289 291 290
4 290 291 293 292
4 292 293 295 294
4 294 295 297 296
4 296 297 299 298
4 298 299 301 300
4 300 301 303 302
4 302 303 305 304
4 304 305 307 306
4 306 307 309 308
4 308 309 311 310
4 310 311 313 312
4 312 313 315 314
4 314 315 317 316
4 316 317 319 318
4 318 319 321 320
4 320 321 323 322
4 322 323 325 324
4 324 325 327 326
4 326 327 329 328
4 328 329 331 330
4 330 331 333 332
4 332 333 335 334
4 334 335 337 336
4 336 337 339 338
4 338 339 341 340
4 340 341 343 342
4 342 343 345 344
4 344 345 347 346
4 346 347 349 348
4 348 349 351 350
4 350 351 353 352
4 352 353 355 354
4 354 355 357 356
4 356 357 359 358
4 358 359 361 360
4 360 361 363 362
4 362 363 365 364
4 364 365 271 270
3 366 367 368
3 366 368 369
3 366 369 370
3 366 370 371
3 366 371 372
3 366 372 373
3 366 373 374
3 366 374 375
3 366 375 376
3 366 376 377
3 366 377 378
3 366 378 379
3 366 379 380
3 366 380 381
3 366 381 382
3 366 382 383
3 366 383 384
3 366 384 385
3 366 385 386
3 366 386 387
3 366 387 388
3 366 388 389
3 366 389 390
3 366 390 391
3 366 391 392
3 366 392 393
3 366 393 394
3 366 394 395
3 366 395 396
3 366 396 397
3 366 397 398
3 366 398 399
3 366 399 400
3 366 400 401
3 366 401 402
3 366 402 403
3 366 403 404
3 366 404 405
3 366 405 406
3 366 406 407
3 366 407 408
3 366 408 409
3 366 409 410
3 366 410 411
3 366 411 412
3 366 412 413
3 366 413 414
3 366 414 367
3 417 416 415
3 418 417 415
3 419 418 415
3 420 419 415
3 421 420 415
3 422 421 415
3 423 422 415
3 424 423 415
3 425 424 415
3 426 425 415
3 427 426 415
3 428 427 415
3 429 428 415
3 430 429 415
3 431 430 415
3 432 431 415
3 433 432 415
3 434 433 415
3 435 434 415
3 436 435 415
3 437 436 415
3 438 437 415
3 439 438 415
3 440 439 415
3 441 440 415
3 442 441 415
3 443 442 415
3 444 443 415
3 445 444 415
3 446 445 415
3 447 446 415
3 448 447 415
3 449 448 415
3 450 449 415
3 451 450 415
3 452 451 415
3 453 452 415
3 454 453 415
3 455 454 415
3 456 455 415
3 457 456 415
3 458 457 415
3 459 458 415
3 460 459 415
3 461 460 415
3 462 461 415
3 463 462 415
3 416 463 415
3 466 465 464
3 467 466 464
3 468 467 464
3 469 468 464
3 470 469 464
3 471 470 464
3 472 471 464
3 473 472 464
3 474 473 464
3 475 474 464
3 476 475 464
3 477 476 464
3 478 477 464
3 479 478 464
3 480 479 464
3 481 480 464
3 482 481 464
3 483 482 464
3 484 483 464
3 485 484 464
3 486 485 464
3 487 486 464
3 488 487 464
3 489 488 464
3 490 489 464
3 491 490 464
3 492 491 464
3 493 492 464
3 494 493 464
3 495 494 464
3 496 495 464
3 497 496 464
3 498 497 464
3 499 498 464
3 500 499 464
3 501 500 464
3 502 501 464
3 503 502 464
3 504 503 464
3 505 504 464
3 506 505 464
3 507 506 464
3 508 507 464
3 509 508 464
3 510 509 464
3 511 510 464
3 512 511 464
3 465 512 464
4 513 514 516 515
4 515 516 518 517
4 517 518 520 519
4 519 520 522 521
4 521 522 524 523
4 523 524 526 525
4 525 526 528 527
4 527 528 530 529
4 529 530 532 531
4 531 532 534 533
4 533 534 536 535
4 535 536 538 537
4 537 538 540 539
4 539 540 542 541
4 541 542 544 543
4 543 544 546 545
4 545 546 548 547
4 547 548 550 549
4 549 550 552 551
4 551 552 554 553
4 553 554 556 555
4 555 556 558 557
4 557 558 560 559
4 559 560 562 561
4 561 562 564 563
4 563 564 566 565
4 565 566 568 567
4 567 568 570 569
4 569 570 572 571
4 571 572 574 573
4 573 574 576 575
4 575 576 578 577
4 577 578 580 579
4 579 580 582 581
4 581 582 584 583
4 583 584 586 585
4 585 586 588 587
4 587 588 590 589
4 589 590 592 591
4 591 592 594 593
4 593 594 596 595
4 595 596 598 597
4 597 598 600 599
4 599 600 602 601
4 601 602 604 603
4 603 604 606 605
4 605 606 608 607
4 607 608 514 513
3 609 610 611
3 609 611 612
3 609 612 613
3 609 613 614
3 609 614 615
3 609 615 616
3 609 616 617
3 609 617 618
3 609 618 619
3 609 619 620
3 609 620 621
3 609 621 622
3 609 622 623
3 609 623 624
3 609 624 625
3 609 625 626
3 609 626 627
3 609 627 628
3 609 628 629
3 609 629 630
3 609 630 631
3 609 631 632
3 609 632 633
3 609 633 634
3 609 634 635
3 609 635 636
3 609 636 637
3 609 637 638
3 609 638 639
3 609 639 640
3 609 640 641
3 609 641 642
3 609 642 643
3 609 643 644
3 609 644 645
3 609 645 646
3 609 646 647
3 609 647 648
3 609 648 649
3 609 649 650
3 609 650 651
3 609 651 652
3 609 652 653
3 609 653 654
3 609 654 655
3 609 655 656
3 609 656 657
3 609 657 610
3 660 659 658
3 661 660 658
3 662 661 658
3 663 662 658
3 664 663 658
3 665 664 658
3 666 665 658
3 667 666 658
3 668 667 658
3 669 668 658
3 670 669 658
3 671 670 658
3 672 671 658
3 673 672 658
3 674 673 658
3 675 674 658
3 676 675 658
3 677 676 658
3 678 677 658
3 679 678 658
3 680 679 658
3 681 680 658
3 682 681 658
3 683 682 658
3 684 683 658
3 685 684 658
3 686 685 658
3 687 686 658
3 688 687 658
3 689 688 658
3 690 689 658
3 691 690 658
3 692 691 658
3 693 692 658
3 694 693 658
3 695 694 658
3 696 695 658
3 697 696 658
3 698 697 658
3 699 698 658
3 700 699 658
3 701 700 658
3 702 701 658
3 703 702 658
3 704 703 658
3 705 704 658
3 706 705 658
3 659 706 658
3 709 708 707
3 710 709 707
3 711 710 707
3 712 711 707
3 713 712 707
3 714 713 707
3 715 714 707
3 716 715 707
3 717 716 707
3 718 717 707
3 719 718 707
3 720 719 707
3 721 720 707
3 722 721 707
3 723 722 707
3 724 723 707
3 725 724 707
3 726 725 707
3 727 726 707
3 728 727 707
3 729 728 707
3 730 729 707
3 731 730 707
3 732 731 707
3 733 732 707
3 734 733 707
3 735 734 707
3 736 735 707
3 737 736 707
3 738 737 707
3 739 738 707
3 740 739 707
3 741 740 707
3 742 741 707
3 743 742 707
3 744 743 707
3 745 744 707
3 746 745 707
3 747 746 707
3 748 747 707
3 749 748 707
3 750 749 707
3 751 750 707
3 752 751 707
3 753 752 707
3 754 753 707
3 755 754 707
3 708 755 707
3 758 757 756
3 759 758 756
3 760 759 756
3 761 760 756
3 762 761 756
3 763 762 756
3 764 763 756
3 765 764 756
3 766 765 756
3 767 766 756
3 768 767 756
3 769 768 756
3 770 769 756
3 771 770 756
3 772 771 756
3 773 772 756
3 774 773 756
3 775 774 756
3 776 775 756
3 777 776 756
3 778 777 756
3 779 778 756
3 780 779 756
3 781 780 756
3 782 781 756
3 783 782 756
3 784 783 756
3 785 784 756
3 786 785 756
3 787 786 756
3 788 787 756
3 789 788 756
3 790 789 756
3 791 790 756
3 792 791 756
3 793 792 756
3 794 793 756
3 795 794 756
3 796 795 756
3 797 796 756
3 798 797 756
3 799 798 756
3 800 799 756
3 801 800 756
3 802 801 756
3 803 802 756
3 804 803 756
3 757 804 756
4 805 806 807 808
4 809 812 811 810
4 805 809 810 806
4 806 810 811 807
4 807 811 812 808
4 808 812 809 805
4 813 814 815 816
4 817 820 819 818
4 813 817 818 814
4 814 818 819 815
4 815 819 820 816
4 816 820 817 813
